<?xml version="1.0" encoding="UTF-8" ?>
<!DOCTYPE svg PUBLIC "-//W3C//DTD SVG 1.1//EN" "http://www.w3.org/Graphics/SVG/1.1/DTD/svg11.dtd">
<svg width="1920px" height="1080px" viewBox="0 0 400 226" version="1.1" xmlns="http://www.w3.org/2000/svg">
<path fill="#737489" d=" M 0.00 0.00 L 16.53 0.00 C 11.48 6.79 5.17 12.58 0.00 19.43 L 0.00 0.00 Z" />
<path fill="#878698" d=" M 16.53 0.00 L 49.28 0.00 C 46.51 3.58 44.19 7.49 42.93 11.86 L 42.04 12.11 C 41.32 9.15 40.63 6.18 39.84 3.24 C 35.79 6.41 30.59 6.70 25.71 6.77 C 16.84 14.56 7.87 22.51 0.00 31.45 L 0.00 19.43 C 5.17 12.58 11.48 6.79 16.53 0.00 Z" />
<path fill="#1d1416" d=" M 49.28 0.00 L 80.09 0.00 C 80.05 1.73 79.96 5.20 79.92 6.93 C 73.34 4.62 60.89 14.09 69.44 19.43 C 77.74 19.51 77.31 33.93 68.38 32.55 C 63.94 35.29 74.30 36.25 75.24 39.61 C 71.72 39.17 63.05 42.27 66.87 47.14 C 70.21 49.67 68.34 52.17 64.81 52.84 C 59.29 54.67 53.58 52.57 48.08 54.22 C 44.79 48.60 43.58 42.27 43.11 35.81 C 42.80 34.57 42.30 33.40 41.84 32.21 C 41.79 25.41 42.38 18.63 42.93 11.86 C 44.19 7.49 46.51 3.58 49.28 0.00 Z" />
<path fill="#32272b" d=" M 80.09 0.00 L 89.57 0.00 C 90.89 1.28 92.24 2.54 93.61 3.77 C 92.47 6.55 89.05 5.60 86.70 6.66 C 83.72 14.43 82.33 22.51 80.86 30.66 C 80.66 30.96 80.24 31.57 80.03 31.88 C 74.84 38.29 74.85 47.59 68.85 53.43 C 67.51 53.20 66.16 53.00 64.81 52.84 C 68.34 52.17 70.21 49.67 66.87 47.14 C 63.05 42.27 71.72 39.17 75.24 39.61 C 74.30 36.25 63.94 35.29 68.38 32.55 C 77.31 33.93 77.74 19.51 69.44 19.43 C 60.89 14.09 73.34 4.62 79.92 6.93 C 79.96 5.20 80.05 1.73 80.09 0.00 Z" />
<path fill="#9591a1" d=" M 89.57 0.00 L 119.57 0.00 C 122.97 0.55 126.41 1.05 129.73 2.01 C 130.76 6.56 135.98 5.48 139.54 6.33 C 139.69 12.36 146.38 12.79 150.18 15.76 C 155.44 18.78 160.13 23.15 166.51 23.56 C 168.66 24.10 168.20 28.83 171.03 27.17 C 173.05 39.00 170.49 51.45 173.02 63.01 C 173.07 69.43 173.03 75.87 172.80 82.29 C 168.04 74.87 174.30 65.55 168.55 58.40 C 162.95 51.30 164.20 37.40 153.58 35.46 C 144.06 34.15 138.61 23.33 128.35 24.65 C 125.98 19.68 120.74 15.95 115.17 16.24 C 111.00 17.77 106.57 17.60 102.21 17.21 C 99.50 19.97 101.59 24.76 100.84 28.29 C 97.72 20.50 94.94 12.41 94.14 4.24 L 93.61 3.77 C 92.24 2.54 90.89 1.28 89.57 0.00 Z" />
<path fill="#4f475a" d=" M 119.57 0.00 L 147.59 0.00 C 154.59 1.00 160.92 3.83 167.17 6.88 C 154.52 6.60 142.26 3.21 129.73 2.01 C 126.41 1.05 122.97 0.55 119.57 0.00 Z" />
<path fill="#22191d" d=" M 147.59 0.00 L 162.53 0.00 C 165.55 0.63 168.74 1.65 171.58 0.00 L 176.99 0.00 L 177.03 0.89 C 177.01 8.85 176.85 16.82 177.21 24.78 C 177.04 35.26 176.50 45.79 177.71 56.24 C 177.87 59.08 178.04 61.93 178.24 64.78 C 177.68 88.44 178.80 112.11 180.36 135.72 C 178.00 140.07 184.49 153.85 176.06 151.97 C 175.72 143.65 176.67 135.22 175.00 127.00 C 174.94 118.25 175.34 109.47 174.27 100.77 C 174.17 98.17 174.08 95.57 174.01 92.97 C 172.93 83.12 175.98 72.55 173.02 63.01 C 172.76 44.97 173.53 25.12 170.98 8.04 C 169.72 7.62 168.45 7.24 167.17 6.88 C 160.92 3.83 154.59 1.00 147.59 0.00 Z" />
<path fill="#61565a" d=" M 162.53 0.00 L 171.58 0.00 C 168.74 1.65 165.55 0.63 162.53 0.00 Z" />
<path fill="#6c6166" d=" M 176.99 0.00 L 183.53 0.00 C 185.31 0.67 187.10 1.30 188.88 1.99 C 193.01 8.37 194.48 15.94 195.69 23.31 C 198.93 34.88 204.82 47.68 199.51 59.42 C 192.38 73.97 192.79 90.62 187.79 105.89 C 181.19 120.91 190.12 139.07 182.91 153.45 C 178.88 148.78 181.99 141.36 180.36 135.72 C 178.80 112.11 177.68 88.44 178.24 64.78 C 179.16 71.89 178.93 79.07 179.13 86.22 C 186.50 80.58 182.05 69.95 187.15 63.18 C 192.92 43.51 192.34 21.67 185.58 2.29 C 182.75 1.66 179.91 1.15 177.03 0.89 L 176.99 0.00 Z" />
<path fill="#180b0f" d=" M 183.53 0.00 L 209.58 0.00 C 215.06 1.27 220.53 2.56 225.97 3.99 C 229.56 4.73 229.22 10.80 226.23 12.09 C 225.50 9.03 223.53 7.43 220.32 7.71 C 213.90 6.10 207.42 4.74 200.85 3.91 C 198.60 3.42 196.32 3.07 194.03 2.84 C 192.31 2.56 190.59 2.27 188.88 1.99 C 187.10 1.30 185.31 0.67 183.53 0.00 Z" />
<path fill="#3e2f28" d=" M 209.58 0.00 L 237.65 0.00 C 244.35 6.57 253.72 11.11 258.11 19.92 C 261.21 23.66 268.11 24.15 267.58 30.50 C 280.71 42.82 277.81 62.85 277.96 79.30 C 277.38 71.99 277.03 64.60 274.29 57.69 C 272.43 52.41 264.44 52.24 263.69 46.20 C 259.70 42.15 254.71 33.39 248.04 37.67 C 247.06 35.60 244.54 33.66 245.97 31.20 C 250.22 23.41 244.72 28.68 242.14 28.91 C 239.53 27.47 237.17 25.33 233.86 25.61 C 234.15 21.30 243.65 22.94 240.10 17.95 C 237.63 13.07 233.85 16.39 231.04 18.77 C 226.63 16.16 221.66 17.66 217.05 19.02 C 219.46 15.70 220.06 11.72 220.32 7.71 C 223.53 7.43 225.50 9.03 226.23 12.09 C 229.22 10.80 229.56 4.73 225.97 3.99 C 220.53 2.56 215.06 1.27 209.58 0.00 Z" />
<path fill="#302119" d=" M 237.65 0.00 L 260.73 0.00 C 267.93 7.50 274.04 16.17 276.53 26.43 C 277.35 40.66 277.59 55.58 280.65 69.35 C 289.78 67.06 292.84 74.93 293.41 82.22 C 295.36 77.21 294.73 71.43 297.87 66.76 C 297.97 73.92 297.79 81.10 298.29 88.25 C 298.28 88.65 298.26 89.44 298.25 89.83 C 298.04 95.81 297.96 101.81 298.05 107.80 C 297.97 112.12 297.94 116.45 297.77 120.78 C 295.96 139.05 297.67 157.46 296.82 175.78 C 296.59 177.38 296.11 180.58 295.87 182.18 C 293.03 176.13 291.56 170.07 291.70 163.30 C 288.62 158.74 285.14 154.42 282.43 149.61 C 281.06 144.96 282.03 139.30 278.19 135.69 C 277.63 122.15 281.61 109.45 278.15 95.69 C 278.10 94.47 278.06 93.26 278.01 92.04 C 277.97 87.79 277.96 83.55 277.96 79.30 C 277.81 62.85 280.71 42.82 267.58 30.50 C 268.11 24.15 261.21 23.66 258.11 19.92 C 253.72 11.11 244.35 6.57 237.65 0.00 Z" />
<path fill="#25160f" d=" M 260.73 0.00 L 275.92 0.00 C 277.37 15.29 276.00 31.40 281.28 45.91 C 287.08 51.42 288.81 36.36 291.67 43.37 C 292.14 46.21 295.75 44.13 296.77 42.67 C 297.62 28.45 297.93 14.20 299.10 0.00 L 315.42 0.00 C 299.50 7.34 298.52 25.83 298.12 41.17 C 298.11 42.53 298.14 43.89 298.21 45.24 C 294.82 52.19 299.13 59.40 297.87 66.76 C 294.73 71.43 295.36 77.21 293.41 82.22 C 292.84 74.93 289.78 67.06 280.65 69.35 C 277.59 55.58 277.35 40.66 276.53 26.43 C 274.04 16.17 267.93 7.50 260.73 0.00 Z" />
<path fill="#130604" d=" M 275.92 0.00 L 299.10 0.00 C 297.93 14.20 297.62 28.45 296.77 42.67 C 295.75 44.13 292.14 46.21 291.67 43.37 C 288.81 36.36 287.08 51.42 281.28 45.91 C 276.00 31.40 277.37 15.29 275.92 0.00 Z" />
<path fill="#31221b" d=" M 315.42 0.00 L 373.45 0.00 C 358.52 3.15 342.74 5.86 327.74 5.72 C 323.61 10.95 327.79 18.72 327.04 24.93 C 323.14 30.74 322.67 19.53 321.27 17.70 C 320.04 11.34 311.26 18.78 313.92 23.00 C 312.47 32.02 300.02 32.12 298.12 41.17 C 298.52 25.83 299.50 7.34 315.42 0.00 Z" />
<path fill="#1f0e0c" d=" M 373.45 0.00 L 400.00 0.00 L 400.00 44.44 C 396.54 42.96 393.20 40.81 391.42 37.37 C 387.78 36.55 386.95 41.75 385.99 43.99 C 386.87 49.99 377.37 47.25 379.78 53.91 C 379.98 56.07 377.49 55.75 376.07 56.19 C 375.60 56.21 374.66 56.27 374.19 56.29 C 370.98 56.04 367.75 55.76 364.97 54.05 C 363.32 48.86 363.50 43.21 361.98 38.07 C 361.72 37.71 361.21 36.99 360.95 36.63 C 362.37 30.27 367.50 29.26 372.88 31.95 C 375.33 26.92 378.09 31.23 380.37 33.84 C 385.60 35.68 391.92 28.60 388.44 23.74 C 387.45 21.04 385.87 18.63 384.60 16.07 C 381.38 7.16 370.01 7.43 362.18 6.99 C 354.96 6.44 348.52 11.96 343.52 15.65 C 342.93 16.65 342.36 17.65 341.79 18.65 C 339.96 21.58 337.70 24.20 335.69 26.99 C 335.38 28.52 335.42 30.09 335.27 31.63 C 331.77 33.31 328.49 38.70 334.00 40.15 C 333.63 40.63 332.90 41.59 332.53 42.06 C 332.06 46.32 332.52 50.56 332.81 54.80 C 327.21 58.21 334.63 62.00 332.85 64.97 C 328.19 62.41 327.74 56.35 327.22 51.60 C 326.91 42.72 326.98 33.82 327.04 24.93 C 327.79 18.72 323.61 10.95 327.74 5.72 C 342.74 5.86 358.52 3.15 373.45 0.00 Z" />
<path fill="#847374" d=" M 177.03 0.89 C 179.91 1.15 182.75 1.66 185.58 2.29 C 192.34 21.67 192.92 43.51 187.15 63.18 C 182.05 69.95 186.50 80.58 179.13 86.22 C 178.93 79.07 179.16 71.89 178.24 64.78 C 178.04 61.93 177.87 59.08 177.71 56.24 C 177.97 45.76 178.58 35.21 177.21 24.78 C 176.85 16.82 177.01 8.85 177.03 0.89 Z" />
<path fill="#8c8795" d=" M 129.73 2.01 C 142.26 3.21 154.52 6.60 167.17 6.88 C 168.45 7.24 169.72 7.62 170.98 8.04 C 171.03 14.41 170.96 20.79 171.03 27.17 C 168.20 28.83 168.66 24.10 166.51 23.56 C 160.13 23.15 155.44 18.78 150.18 15.76 C 146.38 12.79 139.69 12.36 139.54 6.33 C 135.98 5.48 130.76 6.56 129.73 2.01 Z" />
<path fill="#5f565d" d=" M 188.88 1.99 C 190.59 2.27 192.31 2.56 194.03 2.84 C 193.92 14.36 205.92 18.76 209.04 28.92 C 210.18 38.72 218.28 46.52 217.74 56.69 C 216.31 60.46 211.73 61.38 208.83 63.74 C 204.39 66.02 198.76 67.78 197.00 72.93 C 193.26 93.64 193.73 114.88 193.25 135.87 C 193.37 139.75 195.42 144.01 192.60 147.34 C 193.72 152.37 189.40 155.71 184.62 155.32 L 183.95 154.64 C 183.69 154.34 183.17 153.75 182.91 153.45 C 190.12 139.07 181.19 120.91 187.79 105.89 C 192.79 90.62 192.38 73.97 199.51 59.42 C 204.82 47.68 198.93 34.88 195.69 23.31 C 194.48 15.94 193.01 8.37 188.88 1.99 Z" />
<path fill="#9393a5" d=" M 25.71 6.77 C 30.59 6.70 35.79 6.41 39.84 3.24 C 40.63 6.18 41.32 9.15 42.04 12.11 C 41.07 18.32 40.88 24.61 40.91 30.89 C 37.91 30.93 34.92 30.87 31.93 31.10 C 31.36 35.35 38.93 44.35 31.03 44.03 C 27.83 41.86 34.77 31.72 28.14 30.90 C 27.92 32.67 27.81 34.45 27.71 36.23 C 28.17 32.64 21.79 22.79 31.33 25.50 C 28.37 24.02 24.92 24.02 21.76 23.12 C 23.95 25.27 25.51 27.81 25.16 31.02 C 23.22 29.21 20.68 28.30 19.01 30.95 C 9.31 30.76 4.62 40.43 0.00 47.42 L 0.00 31.45 C 7.87 22.51 16.84 14.56 25.71 6.77 Z" />
<path fill="#5b494d" d=" M 194.03 2.84 C 196.32 3.07 198.60 3.42 200.85 3.91 C 202.04 12.81 213.79 15.24 213.15 24.15 C 213.46 28.82 213.57 33.60 215.13 38.06 C 215.75 37.46 216.34 36.85 216.91 36.21 C 218.97 36.50 221.05 36.61 223.14 36.65 C 223.77 34.06 220.00 30.96 222.25 29.14 C 226.26 28.62 226.54 33.18 227.09 36.04 C 223.69 31.11 223.92 38.93 223.26 42.05 C 222.34 45.08 230.29 42.96 226.64 45.20 C 223.93 46.12 226.22 48.44 226.86 50.12 C 225.58 52.11 223.45 53.44 222.48 55.67 C 218.56 58.18 215.94 62.56 211.12 64.13 C 210.55 64.03 209.40 63.84 208.83 63.74 C 211.73 61.38 216.31 60.46 217.74 56.69 C 218.28 46.52 210.18 38.72 209.04 28.92 C 205.92 18.76 193.92 14.36 194.03 2.84 Z" />
<path fill="#514346" d=" M 93.61 3.77 L 94.14 4.24 C 95.14 8.56 91.99 7.72 88.97 7.03 C 88.56 9.57 89.80 11.83 91.13 13.87 C 88.50 20.41 95.25 25.40 92.71 32.24 C 92.43 33.49 93.61 35.51 92.17 36.22 C 85.85 39.03 87.87 28.12 80.86 30.66 C 82.33 22.51 83.72 14.43 86.70 6.66 C 89.05 5.60 92.47 6.55 93.61 3.77 Z" />
<path fill="#a48183" d=" M 94.14 4.24 C 94.94 12.41 97.72 20.50 100.84 28.29 C 100.99 33.67 96.30 37.93 100.35 43.23 C 99.25 47.48 98.82 51.87 98.14 56.20 C 100.40 49.63 91.52 41.51 86.88 48.39 C 80.75 46.51 78.87 38.39 80.02 32.75 C 82.09 35.60 81.55 41.55 85.89 42.19 C 85.62 40.58 85.20 38.99 84.94 37.38 C 87.47 38.06 90.15 38.16 92.17 36.22 C 93.61 35.51 92.43 33.49 92.71 32.24 C 93.33 25.87 99.03 18.06 91.13 13.87 C 89.80 11.83 88.56 9.57 88.97 7.03 C 91.99 7.72 95.14 8.56 94.14 4.24 Z" />
<path fill="#493d41" d=" M 200.85 3.91 C 207.42 4.74 213.90 6.10 220.32 7.71 C 220.06 11.72 219.46 15.70 217.05 19.02 C 215.72 20.71 214.38 22.39 213.15 24.15 C 213.79 15.24 202.04 12.81 200.85 3.91 Z" />
<path fill="#3e3331" d=" M 343.52 15.65 C 348.52 11.96 354.96 6.44 362.18 6.99 C 360.62 8.19 358.15 8.78 357.86 11.03 C 363.38 10.14 371.52 6.84 374.19 13.85 C 370.98 13.80 365.60 10.98 363.94 14.93 C 364.93 16.93 368.55 18.88 365.85 20.99 C 360.85 18.47 353.73 16.37 350.05 22.15 C 354.51 17.76 347.74 11.15 343.52 15.65 Z" />
<path fill="#584a4a" d=" M 362.18 6.99 C 370.01 7.43 381.38 7.16 384.60 16.07 C 381.39 15.00 378.38 11.71 374.19 13.85 C 371.52 6.84 363.38 10.14 357.86 11.03 C 358.15 8.78 360.62 8.19 362.18 6.99 Z" />
<path fill="#61595e" d=" M 170.98 8.04 C 173.53 25.12 172.76 44.97 173.02 63.01 C 170.49 51.45 173.05 39.00 171.03 27.17 C 170.96 20.79 171.03 14.41 170.98 8.04 Z" />
<path fill="#4d4a46" d=" M 42.04 12.11 L 42.93 11.86 C 42.38 18.63 41.79 25.41 41.84 32.21 C 41.61 31.88 41.14 31.22 40.91 30.89 C 40.88 24.61 41.07 18.32 42.04 12.11 Z" />
<path fill="#281f21" d=" M 363.94 14.93 C 365.60 10.98 370.98 13.80 374.19 13.85 C 375.77 17.49 379.04 19.62 381.84 22.17 C 383.74 23.63 383.00 28.09 385.79 27.82 C 386.79 26.55 387.60 25.13 388.44 23.74 C 391.92 28.60 385.60 35.68 380.37 33.84 C 378.09 31.23 375.33 26.92 372.88 31.95 C 367.50 29.26 362.37 30.27 360.95 36.63 C 360.37 36.55 359.21 36.40 358.63 36.33 C 350.84 38.48 346.34 28.32 350.05 22.15 C 353.73 16.37 360.85 18.47 365.85 20.99 C 368.55 18.88 364.93 16.93 363.94 14.93 Z" />
<path fill="#3c3236" d=" M 374.19 13.85 C 378.38 11.71 381.39 15.00 384.60 16.07 C 385.87 18.63 387.45 21.04 388.44 23.74 C 387.60 25.13 386.79 26.55 385.79 27.82 C 383.00 28.09 383.74 23.63 381.84 22.17 C 379.04 19.62 375.77 17.49 374.19 13.85 Z" />
<path fill="#71595e" d=" M 91.13 13.87 C 99.03 18.06 93.33 25.87 92.71 32.24 C 95.25 25.40 88.50 20.41 91.13 13.87 Z" />
<path fill="#614546" d=" M 343.52 15.65 C 347.74 11.15 354.51 17.76 350.05 22.15 C 346.34 28.32 350.84 38.48 358.63 36.33 C 361.47 38.97 354.14 46.00 355.42 40.73 C 355.10 35.91 343.72 45.10 347.76 35.05 C 344.81 30.41 349.65 17.90 341.79 18.65 C 342.36 17.65 342.93 16.65 343.52 15.65 Z" />
<path fill="#2c1b16" d=" M 231.04 18.77 C 233.85 16.39 237.63 13.07 240.10 17.95 C 243.65 22.94 234.15 21.30 233.86 25.61 C 237.17 25.33 239.53 27.47 242.14 28.91 C 244.72 28.68 250.22 23.41 245.97 31.20 C 244.54 33.66 247.06 35.60 248.04 37.67 C 247.11 42.08 243.43 45.21 242.68 49.63 C 242.03 49.73 240.72 49.95 240.07 50.06 C 238.53 45.65 242.85 43.40 244.95 40.31 C 241.90 39.50 239.23 38.01 238.31 34.79 C 237.51 32.72 236.59 30.40 234.14 29.90 C 231.90 29.30 230.69 27.49 229.67 25.56 C 227.80 26.24 225.92 26.34 224.07 25.52 C 220.15 27.51 218.67 32.44 216.91 36.21 C 216.34 36.85 215.75 37.46 215.13 38.06 C 213.57 33.60 213.46 28.82 213.15 24.15 C 214.38 22.39 215.72 20.71 217.05 19.02 C 221.66 17.66 226.63 16.16 231.04 18.77 Z" />
<path fill="#3c2e29" d=" M 313.92 23.00 C 311.26 18.78 320.04 11.34 321.27 17.70 C 322.67 19.53 323.14 30.74 327.04 24.93 C 326.98 33.82 326.91 42.72 327.22 51.60 L 326.42 52.00 C 324.03 46.70 319.33 38.37 313.18 44.62 C 310.02 38.74 299.58 37.72 298.21 45.24 C 298.14 43.89 298.11 42.53 298.12 41.17 C 300.02 32.12 312.47 32.02 313.92 23.00 Z" />
<path fill="#9f9faf" d=" M 102.21 17.21 C 106.57 17.60 111.00 17.77 115.17 16.24 C 120.74 15.95 125.98 19.68 128.35 24.65 C 138.61 23.33 144.06 34.15 153.58 35.46 C 164.20 37.40 162.95 51.30 168.55 58.40 C 174.30 65.55 168.04 74.87 172.80 82.29 C 172.91 85.88 173.03 89.47 173.09 93.06 C 174.13 99.38 165.11 93.81 162.12 95.22 C 155.85 96.50 155.71 107.53 148.00 105.06 C 144.37 105.86 145.44 99.46 145.09 98.03 C 146.63 90.08 150.98 81.79 148.36 73.65 C 145.85 69.68 142.53 63.76 136.69 66.68 C 128.15 71.56 119.18 75.38 109.83 78.38 C 107.79 77.43 105.79 76.38 103.76 75.40 C 117.62 74.53 126.59 62.94 139.34 59.36 C 145.77 55.74 142.12 46.27 135.01 46.91 C 128.07 39.09 116.90 40.16 108.73 34.24 C 99.28 31.29 104.92 39.81 100.35 43.23 C 96.30 37.93 100.99 33.67 100.84 28.29 C 101.59 24.76 99.50 19.97 102.21 17.21 Z" />
<path fill="#98726d" d=" M 341.79 18.65 C 349.65 17.90 344.81 30.41 347.76 35.05 C 343.72 45.10 355.10 35.91 355.42 40.73 C 354.14 46.00 361.47 38.97 358.63 36.33 C 359.21 36.40 360.37 36.55 360.95 36.63 C 361.21 36.99 361.72 37.71 361.98 38.07 C 362.71 43.20 358.27 47.29 354.07 49.41 C 347.56 45.96 342.12 39.18 334.00 40.15 C 328.49 38.70 331.77 33.31 335.27 31.63 C 335.51 34.76 336.51 37.33 339.47 34.51 C 343.62 31.98 337.07 29.34 335.69 26.99 C 337.70 24.20 339.96 21.58 341.79 18.65 Z" />
<path fill="#737586" d=" M 21.76 23.12 C 24.92 24.02 28.37 24.02 31.33 25.50 C 21.79 22.79 28.17 32.64 27.71 36.23 C 28.68 45.84 30.47 55.35 30.94 65.01 C 30.93 67.17 31.68 69.69 33.98 70.37 C 32.10 71.26 30.04 71.67 28.02 72.14 C 30.87 70.11 29.99 66.20 29.82 63.14 C 27.79 52.50 27.53 41.61 25.16 31.02 C 25.51 27.81 23.95 25.27 21.76 23.12 Z" />
<path fill="#5e5053" d=" M 177.21 24.78 C 178.58 35.21 177.97 45.76 177.71 56.24 C 176.50 45.79 177.04 35.26 177.21 24.78 Z" />
<path fill="#4b302d" d=" M 224.07 25.52 C 225.92 26.34 227.80 26.24 229.67 25.56 C 230.69 27.49 231.90 29.30 234.14 29.90 C 230.45 31.31 234.46 34.39 235.06 36.72 C 232.24 36.07 229.05 39.15 227.09 36.04 C 226.54 33.18 226.26 28.62 222.25 29.14 C 220.00 30.96 223.77 34.06 223.14 36.65 C 221.05 36.61 218.97 36.50 216.91 36.21 C 218.67 32.44 220.15 27.51 224.07 25.52 Z" />
<path fill="#5b3a32" d=" M 335.27 31.63 C 335.42 30.09 335.38 28.52 335.69 26.99 C 337.07 29.34 343.62 31.98 339.47 34.51 C 336.51 37.33 335.51 34.76 335.27 31.63 Z" />
<path fill="#a3a3b5" d=" M 19.01 30.95 C 20.68 28.30 23.22 29.21 25.16 31.02 C 27.53 41.61 27.79 52.50 29.82 63.14 C 29.99 66.20 30.87 70.11 28.02 72.14 C 26.65 72.67 25.27 73.19 23.95 73.86 C 16.05 77.84 7.80 81.09 0.00 85.29 L 0.00 47.42 C 4.62 40.43 9.31 30.76 19.01 30.95 Z" />
<path fill="#92706f" d=" M 234.14 29.90 C 236.59 30.40 237.51 32.72 238.31 34.79 C 237.23 39.49 239.37 48.89 231.98 48.81 C 229.83 48.36 227.80 47.11 226.64 45.20 C 230.29 42.96 222.34 45.08 223.26 42.05 C 223.92 38.93 223.69 31.11 227.09 36.04 C 229.05 39.15 232.24 36.07 235.06 36.72 C 234.46 34.39 230.45 31.31 234.14 29.90 Z" />
<path fill="#a7a8b8" d=" M 28.14 30.90 C 34.77 31.72 27.83 41.86 31.03 44.03 C 38.93 44.35 31.36 35.35 31.93 31.10 C 34.92 30.87 37.91 30.93 40.91 30.89 C 41.14 31.22 41.61 31.88 41.84 32.21 C 42.30 33.40 42.80 34.57 43.11 35.81 C 42.77 42.26 42.03 50.06 48.08 54.22 C 48.07 54.91 48.04 56.30 48.02 57.00 C 46.23 57.48 44.83 58.98 45.09 60.93 C 43.08 62.36 41.34 64.13 40.05 66.24 C 38.06 67.66 36.09 69.13 33.98 70.37 C 31.68 69.69 30.93 67.17 30.94 65.01 C 30.47 55.35 28.68 45.84 27.71 36.23 C 27.81 34.45 27.92 32.67 28.14 30.90 Z" />
<path fill="#765050" d=" M 80.03 31.88 C 80.24 31.57 80.66 30.96 80.86 30.66 C 87.87 28.12 85.85 39.03 92.17 36.22 C 90.15 38.16 87.47 38.06 84.94 37.38 C 85.20 38.99 85.62 40.58 85.89 42.19 C 81.55 41.55 82.09 35.60 80.02 32.75 L 80.03 31.88 Z" />
<path fill="#523132" d=" M 68.85 53.43 C 74.85 47.59 74.84 38.29 80.03 31.88 L 80.02 32.75 C 78.87 38.39 80.75 46.51 86.88 48.39 C 87.29 48.76 88.10 49.51 88.51 49.89 C 87.72 53.32 83.42 51.14 80.89 51.70 C 77.99 52.42 78.01 47.64 75.18 48.02 C 73.86 49.96 73.05 52.17 72.13 54.31 C 71.04 54.02 69.94 53.73 68.85 53.43 Z" />
<path fill="#acacbe" d=" M 100.35 43.23 C 104.92 39.81 99.28 31.29 108.73 34.24 C 116.90 40.16 128.07 39.09 135.01 46.91 C 142.12 46.27 145.77 55.74 139.34 59.36 C 126.59 62.94 117.62 74.53 103.76 75.40 C 98.68 73.20 93.66 70.71 88.13 69.88 C 87.57 69.57 86.45 68.97 85.89 68.67 C 86.98 68.25 88.08 67.85 89.18 67.45 C 91.94 66.79 94.73 66.21 97.42 65.26 L 98.23 64.97 C 99.97 63.03 97.56 58.98 98.14 56.20 C 98.82 51.87 99.25 47.48 100.35 43.23 Z" />
<path fill="#70595c" d=" M 238.31 34.79 C 239.23 38.01 241.90 39.50 244.95 40.31 C 242.85 43.40 238.53 45.65 240.07 50.06 C 240.27 51.27 240.62 52.46 240.94 53.65 C 237.08 58.75 231.40 64.55 231.67 71.07 C 228.59 71.66 225.45 72.06 222.54 73.25 C 221.88 72.54 221.25 71.80 220.66 71.02 C 221.66 69.42 221.44 67.56 221.36 65.77 C 223.93 67.03 225.47 70.72 228.77 69.93 C 230.99 68.45 228.72 65.65 229.68 63.66 C 231.49 59.86 234.66 56.82 236.03 52.79 C 231.28 53.00 227.22 59.19 222.48 55.67 C 223.45 53.44 225.58 52.11 226.86 50.12 C 226.22 48.44 223.93 46.12 226.64 45.20 C 227.80 47.11 229.83 48.36 231.98 48.81 C 239.37 48.89 237.23 39.49 238.31 34.79 Z" />
<path fill="#73756d" d=" M 43.11 35.81 C 43.58 42.27 44.79 48.60 48.08 54.22 C 42.03 50.06 42.77 42.26 43.11 35.81 Z" />
<path fill="#4d403a" d=" M 248.04 37.67 C 254.71 33.39 259.70 42.15 263.69 46.20 C 264.44 52.24 272.43 52.41 274.29 57.69 C 277.03 64.60 277.38 71.99 277.96 79.30 C 277.96 83.55 277.97 87.79 278.01 92.04 C 277.09 91.67 276.17 91.30 275.25 90.95 C 276.56 83.89 275.97 76.00 272.44 69.67 C 267.17 64.59 257.95 65.29 253.07 59.01 C 248.68 56.92 248.08 48.80 242.68 49.63 C 243.43 45.21 247.11 42.08 248.04 37.67 Z" />
<path fill="#2d1615" d=" M 385.99 43.99 C 386.95 41.75 387.78 36.55 391.42 37.37 C 393.20 40.81 396.54 42.96 400.00 44.44 L 400.00 167.36 C 396.48 168.84 396.10 174.27 391.84 174.04 C 391.82 173.51 391.77 172.43 391.74 171.89 L 392.06 171.15 C 395.78 168.70 393.00 163.37 393.36 159.85 C 393.25 158.64 393.19 157.42 393.17 156.20 C 394.99 146.16 396.26 135.98 395.85 125.77 C 395.93 122.09 395.96 118.42 395.85 114.75 C 396.46 111.26 396.93 107.75 397.32 104.23 C 396.03 100.05 402.54 86.72 394.69 88.15 C 393.19 85.39 391.76 82.59 390.18 79.87 C 389.47 78.62 388.75 77.39 388.05 76.14 C 387.36 73.95 386.18 71.86 384.12 70.69 C 383.85 70.49 383.32 70.08 383.05 69.87 C 383.53 68.19 382.81 66.50 381.14 65.88 C 380.52 65.17 379.90 64.46 379.29 63.76 C 379.22 61.94 377.25 61.32 375.85 62.23 C 375.93 60.21 376.00 58.20 376.07 56.19 C 377.49 55.75 379.98 56.07 379.78 53.91 C 377.37 47.25 386.87 49.99 385.99 43.99 Z" />
<path fill="#6d4748" d=" M 361.98 38.07 C 363.50 43.21 363.32 48.86 364.97 54.05 C 364.47 53.77 363.47 53.21 362.97 52.93 C 362.35 46.71 349.22 54.61 354.07 49.41 C 358.27 47.29 362.71 43.20 361.98 38.07 Z" />
<path fill="#55423d" d=" M 298.21 45.24 C 299.58 37.72 310.02 38.74 313.18 44.62 C 319.33 38.37 324.03 46.70 326.42 52.00 C 326.58 59.67 325.47 67.57 328.17 74.92 C 324.12 74.36 325.29 66.52 320.24 66.95 C 321.14 65.75 323.32 63.80 320.36 64.00 C 317.86 59.00 322.09 52.33 318.74 48.28 C 314.32 49.95 307.41 44.06 304.97 48.98 C 298.88 57.17 309.20 62.05 313.84 67.25 C 310.18 69.81 312.35 73.94 315.75 70.08 C 317.04 74.17 319.47 77.89 320.07 82.19 L 319.91 83.22 C 315.19 80.64 313.46 74.70 308.71 72.31 C 305.84 72.84 303.28 72.65 301.79 69.79 C 298.22 75.31 299.70 82.12 298.29 88.25 C 297.79 81.10 297.97 73.92 297.87 66.76 C 299.13 59.40 294.82 52.19 298.21 45.24 Z" />
<path fill="#84615c" d=" M 334.00 40.15 C 342.12 39.18 347.56 45.96 354.07 49.41 C 349.22 54.61 362.35 46.71 362.97 52.93 C 356.59 51.78 354.35 58.20 355.36 63.33 C 354.37 63.98 353.37 64.61 352.37 65.24 C 352.88 61.27 350.32 57.73 348.73 54.31 C 346.65 50.19 341.49 54.17 338.56 51.49 C 333.53 49.79 337.65 43.92 332.53 42.06 C 332.90 41.59 333.63 40.63 334.00 40.15 Z" />
<path fill="#614943" d=" M 332.81 54.80 C 332.52 50.56 332.06 46.32 332.53 42.06 C 337.65 43.92 333.53 49.79 338.56 51.49 C 341.49 54.17 346.65 50.19 348.73 54.31 C 350.32 57.73 352.88 61.27 352.37 65.24 C 349.60 68.54 345.45 71.43 345.72 76.19 C 341.84 73.38 346.31 70.46 348.09 67.98 C 346.59 64.46 343.07 62.04 339.66 60.64 C 336.18 60.30 331.75 59.36 332.81 54.80 Z" />
<path fill="#8e6e6a" d=" M 86.88 48.39 C 91.52 41.51 100.40 49.63 98.14 56.20 C 97.56 58.98 99.97 63.03 98.23 64.97 C 97.20 58.55 93.55 53.77 88.51 49.89 C 88.10 49.51 87.29 48.76 86.88 48.39 Z" />
<path fill="#7b5c5a" d=" M 304.97 48.98 C 307.41 44.06 314.32 49.95 318.74 48.28 C 322.09 52.33 317.86 59.00 320.36 64.00 C 318.27 65.25 316.05 66.24 313.84 67.25 C 309.20 62.05 298.88 57.17 304.97 48.98 Z" />
<path fill="#6a4d49" d=" M 75.18 48.02 C 78.01 47.64 77.99 52.42 80.89 51.70 C 83.42 51.14 87.72 53.32 88.51 49.89 C 93.55 53.77 97.20 58.55 98.23 64.97 L 97.42 65.26 C 95.39 62.77 93.96 59.40 90.71 58.28 C 85.54 56.91 85.13 66.76 89.18 67.45 C 88.08 67.85 86.98 68.25 85.89 68.67 C 84.30 67.74 82.80 66.60 81.82 65.01 C 87.12 67.75 80.73 59.20 78.66 58.40 C 76.67 56.79 74.26 55.86 71.84 55.10 L 72.13 54.31 C 73.05 52.17 73.86 49.96 75.18 48.02 Z" />
<path fill="#525259" d=" M 242.68 49.63 C 248.08 48.80 248.68 56.92 253.07 59.01 C 257.95 65.29 267.17 64.59 272.44 69.67 C 271.94 72.76 271.32 75.83 270.78 78.92 C 268.59 78.69 266.44 78.06 264.22 78.03 C 261.13 88.68 247.12 94.18 250.68 106.83 C 244.09 117.41 242.56 130.28 235.79 140.84 C 232.64 140.95 225.74 139.06 229.29 145.82 C 230.17 150.62 231.60 157.70 238.00 157.05 C 241.78 155.22 243.52 150.10 243.00 145.88 C 248.68 141.17 251.51 131.43 258.95 129.90 C 258.29 139.30 258.92 150.10 253.09 158.08 C 251.00 169.34 246.20 189.62 230.83 185.26 C 230.71 184.89 230.48 184.14 230.37 183.77 C 229.99 182.43 229.61 181.09 229.23 179.75 C 227.73 173.46 226.46 167.13 225.24 160.79 C 223.57 154.05 223.00 147.13 222.70 140.22 C 224.10 134.26 223.35 128.21 223.20 122.17 C 225.30 110.65 234.56 102.43 238.98 91.91 C 233.29 96.18 231.00 103.25 226.13 108.09 C 226.02 107.53 225.79 106.42 225.68 105.87 C 228.04 98.42 231.28 91.05 230.98 83.08 C 234.67 85.44 238.19 73.79 232.08 74.81 C 232.37 73.96 232.65 73.12 232.95 72.28 C 235.59 73.84 236.97 71.90 237.40 69.34 C 237.51 63.88 243.91 59.07 240.94 53.65 C 240.62 52.46 240.27 51.27 240.07 50.06 C 240.72 49.95 242.03 49.73 242.68 49.63 Z" />
<path fill="#2f1916" d=" M 326.42 52.00 L 327.22 51.60 C 327.74 56.35 328.19 62.41 332.85 64.97 C 334.63 62.00 327.21 58.21 332.81 54.80 C 331.75 59.36 336.18 60.30 339.66 60.64 C 343.07 62.04 346.59 64.46 348.09 67.98 C 346.31 70.46 341.84 73.38 345.72 76.19 L 345.72 76.96 C 345.35 76.98 344.61 77.02 344.24 77.05 C 341.98 76.61 341.07 78.93 339.80 80.28 L 339.03 80.08 C 338.62 79.80 337.79 79.25 337.38 78.98 C 336.32 77.88 335.32 76.71 334.13 75.74 C 332.64 75.54 329.66 75.13 328.17 74.92 C 325.47 67.57 326.58 59.67 326.42 52.00 Z" />
<path fill="#615c7d" d=" M 48.08 54.22 C 53.58 52.57 59.29 54.67 64.81 52.84 C 66.16 53.00 67.51 53.20 68.85 53.43 C 69.94 53.73 71.04 54.02 72.13 54.31 L 71.84 55.10 C 68.50 54.60 64.79 53.11 61.85 55.59 C 63.32 55.98 64.80 56.33 66.27 56.73 C 64.90 56.81 63.53 56.89 62.16 56.98 C 59.72 56.79 57.29 56.27 54.84 56.47 C 53.13 56.60 49.73 56.87 48.02 57.00 C 48.04 56.30 48.07 54.91 48.08 54.22 Z" />
<path fill="#453a3c" d=" M 222.48 55.67 C 227.22 59.19 231.28 53.00 236.03 52.79 C 234.66 56.82 231.49 59.86 229.68 63.66 C 228.72 65.65 230.99 68.45 228.77 69.93 C 225.47 70.72 223.93 67.03 221.36 65.77 C 221.44 67.56 221.66 69.42 220.66 71.02 C 219.69 81.58 207.97 74.50 204.06 71.01 C 205.48 68.13 208.82 66.44 211.12 64.13 C 215.94 62.56 218.56 58.18 222.48 55.67 Z" />
<path fill="#9d7d80" d=" M 355.36 63.33 C 354.35 58.20 356.59 51.78 362.97 52.93 C 363.47 53.21 364.47 53.77 364.97 54.05 C 367.75 55.76 370.98 56.04 374.19 56.29 C 372.03 56.62 369.91 57.04 367.81 57.55 C 364.31 58.55 361.01 60.15 357.87 61.98 C 357.03 62.43 356.20 62.88 355.36 63.33 Z" />
<path fill="#b4aeca" d=" M 61.85 55.59 C 64.79 53.11 68.50 54.60 71.84 55.10 C 74.26 55.86 76.67 56.79 78.66 58.40 C 80.73 59.20 87.12 67.75 81.82 65.01 C 77.82 60.47 72.00 58.17 66.27 56.73 C 64.80 56.33 63.32 55.98 61.85 55.59 Z" />
<path fill="#8681ab" d=" M 231.67 71.07 C 231.40 64.55 237.08 58.75 240.94 53.65 C 243.91 59.07 237.51 63.88 237.40 69.34 C 236.97 71.90 235.59 73.84 232.95 72.28 C 232.63 71.98 231.99 71.37 231.67 71.07 Z" />
<path fill="#252732" d=" M 54.84 56.47 C 57.29 56.27 59.72 56.79 62.16 56.98 C 61.94 60.41 62.73 63.67 66.50 64.65 C 63.00 72.04 69.82 67.52 71.08 71.99 C 65.58 80.53 55.83 88.26 57.35 99.67 C 58.56 104.56 55.26 113.06 61.91 114.78 C 65.29 113.24 69.89 110.37 72.14 114.99 C 75.51 113.98 80.85 109.67 81.45 115.64 C 84.41 119.43 92.75 121.06 96.26 115.68 C 101.29 116.95 96.65 108.47 102.06 109.76 C 104.05 111.15 106.14 112.57 107.18 114.86 C 98.64 111.51 106.95 123.18 109.13 126.82 C 111.39 134.32 104.25 125.30 101.72 123.27 C 96.61 119.00 89.30 123.61 83.93 125.82 C 76.35 125.09 68.77 119.37 61.50 124.39 C 57.68 124.62 56.24 132.91 52.69 128.33 C 46.58 115.11 44.19 99.97 37.97 87.04 C 39.69 83.76 40.86 77.55 44.69 76.49 C 51.00 78.09 50.90 69.03 56.73 69.01 C 57.38 70.68 57.88 72.39 58.43 74.09 C 60.36 71.41 62.31 68.51 63.00 65.25 C 60.73 64.35 58.20 64.12 56.10 62.82 C 55.85 60.61 58.43 56.67 54.84 56.47 Z" />
<path fill="#a195ba" d=" M 374.19 56.29 C 374.66 56.27 375.60 56.21 376.07 56.19 C 376.00 58.20 375.93 60.21 375.85 62.23 C 373.35 60.40 370.98 58.12 367.81 57.55 C 369.91 57.04 372.03 56.62 374.19 56.29 Z" />
<path fill="#606062" d=" M 45.09 60.93 C 44.83 58.98 46.23 57.48 48.02 57.00 C 48.24 58.94 46.83 60.38 45.09 60.93 Z" />
<path fill="#1f1f28" d=" M 48.02 57.00 C 49.73 56.87 53.13 56.60 54.84 56.47 C 58.43 56.67 55.85 60.61 56.10 62.82 C 58.20 64.12 60.73 64.35 63.00 65.25 C 62.31 68.51 60.36 71.41 58.43 74.09 C 57.88 72.39 57.38 70.68 56.73 69.01 C 50.90 69.03 51.00 78.09 44.69 76.49 C 40.86 77.55 39.69 83.76 37.97 87.04 C 44.19 99.97 46.58 115.11 52.69 128.33 C 56.24 132.91 57.68 124.62 61.50 124.39 C 68.77 119.37 76.35 125.09 83.93 125.82 C 89.30 123.61 96.61 119.00 101.72 123.27 C 104.25 125.30 111.39 134.32 109.13 126.82 C 111.20 127.94 113.89 132.09 109.89 132.35 C 109.00 131.80 108.10 131.26 107.20 130.74 C 106.46 130.17 105.73 129.58 105.02 128.98 C 103.41 126.74 100.87 123.21 97.99 126.00 C 95.17 128.78 92.40 123.93 89.22 125.07 C 85.64 128.74 87.79 134.48 86.93 138.98 C 80.88 136.87 78.31 129.18 72.21 128.00 C 72.15 134.77 66.20 138.89 65.68 145.52 C 64.11 147.56 65.99 139.52 63.69 142.78 C 57.81 147.68 67.80 152.52 65.86 158.04 C 65.47 160.88 66.64 163.21 69.77 162.73 C 76.13 170.31 83.15 177.39 91.81 182.30 C 93.41 186.05 89.54 184.10 87.37 184.27 C 85.28 186.52 83.02 188.65 80.14 189.86 C 75.71 178.81 63.77 171.25 63.45 158.60 C 64.64 155.00 61.71 154.48 59.91 153.01 C 49.98 135.21 46.56 114.66 39.20 95.76 C 35.72 90.97 35.25 99.28 36.83 102.13 C 40.87 110.03 41.53 118.51 41.88 127.13 C 35.75 125.33 38.84 115.08 32.02 112.80 C 30.30 120.75 35.70 127.28 37.28 134.70 C 38.87 142.68 42.85 149.99 43.79 158.14 C 44.29 159.39 43.54 160.92 42.12 160.98 C 37.40 152.84 35.99 142.39 29.07 135.90 C 27.39 128.79 26.33 120.52 19.97 116.00 C 17.37 106.20 21.90 96.14 24.66 86.66 C 25.27 81.26 34.06 83.69 33.93 78.10 C 33.43 72.69 26.96 77.48 23.95 73.86 C 25.27 73.19 26.65 72.67 28.02 72.14 C 30.04 71.67 32.10 71.26 33.98 70.37 C 36.09 69.13 38.06 67.66 40.05 66.24 C 42.47 65.29 44.47 63.53 45.09 60.93 C 46.83 60.38 48.24 58.94 48.02 57.00 Z" />
<path fill="#2e303e" d=" M 62.16 56.98 C 63.53 56.89 64.90 56.81 66.27 56.73 C 72.00 58.17 77.82 60.47 81.82 65.01 C 82.80 66.60 84.30 67.74 85.89 68.67 C 86.45 68.97 87.57 69.57 88.13 69.88 C 91.55 75.27 84.52 77.74 80.32 78.58 C 78.52 80.26 78.03 83.59 74.86 82.52 C 77.33 88.56 78.16 94.77 77.59 101.37 C 81.71 103.54 84.57 108.87 88.93 111.99 C 88.45 104.66 91.60 103.30 97.08 106.04 C 98.73 107.29 100.38 108.55 102.06 109.76 C 96.65 108.47 101.29 116.95 96.26 115.68 C 92.75 121.06 84.41 119.43 81.45 115.64 C 80.85 109.67 75.51 113.98 72.14 114.99 C 69.89 110.37 65.29 113.24 61.91 114.78 C 55.26 113.06 58.56 104.56 57.35 99.67 C 55.83 88.26 65.58 80.53 71.08 71.99 C 69.82 67.52 63.00 72.04 66.50 64.65 C 62.73 63.67 61.94 60.41 62.16 56.98 Z" />
<path fill="#412f2f" d=" M 89.18 67.45 C 85.13 66.76 85.54 56.91 90.71 58.28 C 93.96 59.40 95.39 62.77 97.42 65.26 C 94.73 66.21 91.94 66.79 89.18 67.45 Z" />
<path fill="#e7e3f4" d=" M 357.87 61.98 C 361.01 60.15 364.31 58.55 367.81 57.55 C 370.98 58.12 373.35 60.40 375.85 62.23 C 376.68 63.27 377.97 63.76 379.29 63.76 C 379.90 64.46 380.52 65.17 381.14 65.88 C 380.77 67.50 381.49 69.20 383.05 69.87 C 383.32 70.08 383.85 70.49 384.12 70.69 C 384.80 72.92 386.17 74.77 388.05 76.14 C 388.75 77.39 389.47 78.62 390.18 79.87 C 387.73 85.05 390.59 90.20 394.62 93.53 C 398.00 101.22 390.06 96.03 386.74 96.18 C 385.76 95.11 384.81 94.01 383.91 92.87 C 383.62 89.99 377.11 86.79 379.57 91.60 C 382.86 99.02 375.38 112.92 366.79 107.25 C 365.61 101.29 361.48 96.94 357.41 92.68 C 357.76 87.36 357.68 82.07 355.44 77.17 C 357.40 72.24 357.65 67.16 357.87 61.98 Z" />
<path fill="#626267" d=" M 40.05 66.24 C 41.34 64.13 43.08 62.36 45.09 60.93 C 44.47 63.53 42.47 65.29 40.05 66.24 Z" />
<path fill="#c7bfdb" d=" M 355.36 63.33 C 356.20 62.88 357.03 62.43 357.87 61.98 C 357.65 67.16 357.40 72.24 355.44 77.17 C 357.68 82.07 357.76 87.36 357.41 92.68 C 361.48 96.94 365.61 101.29 366.79 107.25 C 375.38 112.92 382.86 99.02 379.57 91.60 C 377.11 86.79 383.62 89.99 383.91 92.87 C 383.42 92.97 382.44 93.17 381.95 93.26 C 384.84 98.90 388.89 104.37 389.13 110.95 C 379.29 106.53 379.14 124.52 371.11 125.02 C 361.72 120.00 364.28 107.71 356.28 101.72 C 353.10 99.92 358.62 92.35 353.27 94.21 C 350.42 98.66 349.50 107.20 343.24 108.04 C 342.86 107.51 342.11 106.43 341.73 105.90 C 340.50 103.86 337.99 102.58 337.80 100.01 C 339.52 96.04 341.51 92.19 343.09 88.17 C 345.70 85.10 350.16 83.02 351.12 78.84 C 348.99 78.83 345.40 84.13 345.74 79.81 C 345.73 79.10 345.73 77.67 345.72 76.96 L 345.72 76.19 C 345.45 71.43 349.60 68.54 352.37 65.24 C 353.37 64.61 354.37 63.98 355.36 63.33 Z" />
<path fill="#907da0" d=" M 375.85 62.23 C 377.25 61.32 379.22 61.94 379.29 63.76 C 377.97 63.76 376.68 63.27 375.85 62.23 Z" />
<path fill="#605b5b" d=" M 173.02 63.01 C 175.98 72.55 172.93 83.12 174.01 92.97 L 173.09 93.06 C 173.03 89.47 172.91 85.88 172.80 82.29 C 173.03 75.87 173.07 69.43 173.02 63.01 Z" />
<path fill="#4b484f" d=" M 197.00 72.93 C 198.76 67.78 204.39 66.02 208.83 63.74 C 209.40 63.84 210.55 64.03 211.12 64.13 C 208.82 66.44 205.48 68.13 204.06 71.01 C 207.97 74.50 219.69 81.58 220.66 71.02 C 221.25 71.80 221.88 72.54 222.54 73.25 C 223.34 74.19 224.20 75.08 224.98 76.04 C 216.47 74.30 222.90 87.79 221.14 92.27 C 221.84 90.82 222.34 89.29 222.81 87.75 C 222.80 94.12 221.60 100.47 222.28 106.83 C 222.56 113.47 215.45 99.25 217.64 106.35 C 220.71 113.73 212.99 123.10 220.05 128.97 C 220.02 129.42 219.98 130.32 219.96 130.77 C 210.45 134.19 218.21 151.76 206.96 151.02 C 208.94 148.88 210.91 143.07 206.26 143.86 C 206.74 137.04 204.08 129.58 208.86 123.84 C 208.00 117.01 205.34 110.39 203.65 103.71 C 206.82 97.87 202.05 92.93 198.22 88.83 C 195.00 96.99 199.13 106.00 196.23 114.17 C 195.75 117.29 198.48 119.88 198.59 122.96 C 196.24 132.35 195.46 142.21 196.56 151.85 C 197.19 151.96 198.45 152.19 199.08 152.30 C 197.83 153.82 193.90 154.74 195.76 157.19 L 196.10 157.89 C 192.66 157.07 188.86 156.18 189.69 161.15 C 187.26 160.04 186.20 157.32 184.62 155.32 C 189.40 155.71 193.72 152.37 192.60 147.34 C 195.42 144.01 193.37 139.75 193.25 135.87 C 193.73 114.88 193.26 93.64 197.00 72.93 Z" />
<path fill="#2c1f20" d=" M 320.36 64.00 C 323.32 63.80 321.14 65.75 320.24 66.95 C 318.75 68.00 317.23 69.01 315.75 70.08 C 312.35 73.94 310.18 69.81 313.84 67.25 C 316.05 66.24 318.27 65.25 320.36 64.00 Z" />
<path fill="#9597a5" d=" M 136.69 66.68 C 142.53 63.76 145.85 69.68 148.36 73.65 C 150.98 81.79 146.63 90.08 145.09 98.03 C 145.44 99.46 144.37 105.86 148.00 105.06 C 155.71 107.53 155.85 96.50 162.12 95.22 C 165.11 93.81 174.13 99.38 173.09 93.06 L 174.01 92.97 C 174.08 95.57 174.17 98.17 174.27 100.77 C 174.15 109.50 173.23 118.36 175.00 127.00 C 175.00 134.98 175.17 142.96 174.98 150.94 C 169.52 147.70 163.86 144.81 158.40 141.59 C 154.96 137.78 153.12 132.59 148.48 129.91 C 147.69 129.20 146.87 128.54 146.01 127.93 C 143.99 126.79 141.62 125.85 140.91 123.39 C 146.06 119.73 139.84 113.91 138.19 109.97 C 135.30 102.98 130.94 96.44 129.87 88.83 C 127.98 82.38 119.06 81.13 113.20 79.97 C 112.07 79.46 110.95 78.93 109.83 78.38 C 119.18 75.38 128.15 71.56 136.69 66.68 Z" />
<path fill="#998bae" d=" M 381.14 65.88 C 382.81 66.50 383.53 68.19 383.05 69.87 C 381.49 69.20 380.77 67.50 381.14 65.88 Z" />
<path fill="#7d6865" d=" M 320.24 66.95 C 325.29 66.52 324.12 74.36 328.17 74.92 C 329.66 75.13 332.64 75.54 334.13 75.74 C 329.15 74.37 325.05 76.61 322.01 80.15 C 321.34 80.81 320.69 81.49 320.07 82.19 C 319.47 77.89 317.04 74.17 315.75 70.08 C 317.23 69.01 318.75 68.00 320.24 66.95 Z" />
<path fill="#363847" d=" M 88.13 69.88 C 93.66 70.71 98.68 73.20 103.76 75.40 C 105.79 76.38 107.79 77.43 109.83 78.38 C 110.95 78.93 112.07 79.46 113.20 79.97 C 113.48 83.72 110.46 79.18 108.61 80.46 C 104.95 77.78 104.34 84.72 101.78 83.10 C 98.54 80.67 95.72 86.98 92.21 84.82 C 89.61 82.72 87.99 86.56 89.39 88.63 C 92.57 94.15 94.48 100.25 97.08 106.04 C 91.60 103.30 88.45 104.66 88.93 111.99 C 84.57 108.87 81.71 103.54 77.59 101.37 C 78.16 94.77 77.33 88.56 74.86 82.52 C 78.03 83.59 78.52 80.26 80.32 78.58 C 84.52 77.74 91.55 75.27 88.13 69.88 Z" />
<path fill="#49474f" d=" M 272.44 69.67 C 275.97 76.00 276.56 83.89 275.25 90.95 C 274.07 94.86 274.11 102.12 268.33 101.49 C 265.55 100.67 263.34 103.45 263.96 106.09 C 267.38 106.83 269.72 100.51 272.32 104.71 C 273.11 111.39 271.22 118.84 270.72 125.81 C 269.26 125.89 266.35 126.06 264.90 126.15 C 270.18 127.78 272.08 137.27 266.09 139.02 C 262.05 132.24 257.93 123.84 262.02 116.01 C 264.21 112.77 261.58 109.60 260.46 106.54 C 259.49 101.27 260.51 95.96 260.80 90.69 C 255.59 94.80 256.08 102.13 254.92 107.99 C 249.49 120.04 243.20 131.95 238.55 144.45 C 239.33 147.16 233.70 152.34 237.76 154.00 C 239.63 151.37 241.06 148.45 243.00 145.88 C 243.52 150.10 241.78 155.22 238.00 157.05 C 231.60 157.70 230.17 150.62 229.29 145.82 C 225.74 139.06 232.64 140.95 235.79 140.84 C 242.56 130.28 244.09 117.41 250.68 106.83 C 247.12 94.18 261.13 88.68 264.22 78.03 C 266.44 78.06 268.59 78.69 270.78 78.92 C 271.32 75.83 271.94 72.76 272.44 69.67 Z" />
<path fill="#5c4f48" d=" M 298.29 88.25 C 299.70 82.12 298.22 75.31 301.79 69.79 C 303.28 72.65 305.84 72.84 308.71 72.31 C 313.46 74.70 315.19 80.64 319.91 83.22 C 316.25 92.65 329.03 92.09 330.13 98.92 L 330.10 99.93 C 329.56 99.64 328.49 99.08 327.95 98.79 C 324.19 92.09 319.38 99.16 319.60 104.11 C 316.25 98.72 312.10 91.53 304.35 94.45 C 300.91 95.89 298.38 93.15 298.25 89.83 C 298.26 89.44 298.28 88.65 298.29 88.25 Z" />
<path fill="#1c1c26" d=" M 222.54 73.25 C 225.45 72.06 228.59 71.66 231.67 71.07 C 231.99 71.37 232.63 71.98 232.95 72.28 C 232.65 73.12 232.37 73.96 232.08 74.81 C 231.03 77.42 231.18 80.30 230.98 83.08 C 231.28 91.05 228.04 98.42 225.68 105.87 C 224.77 108.31 224.09 110.83 223.32 113.31 C 223.06 111.69 222.54 108.45 222.28 106.83 C 221.60 100.47 222.80 94.12 222.81 87.75 C 223.24 83.79 225.43 80.10 224.98 76.04 C 224.20 75.08 223.34 74.19 222.54 73.25 Z" />
<path fill="#645172" d=" M 384.12 70.69 C 386.18 71.86 387.36 73.95 388.05 76.14 C 386.17 74.77 384.80 72.92 384.12 70.69 Z" />
<path fill="#17171f" d=" M 0.00 85.29 C 7.80 81.09 16.05 77.84 23.95 73.86 C 26.96 77.48 33.43 72.69 33.93 78.10 C 34.06 83.69 25.27 81.26 24.66 86.66 C 21.90 96.14 17.37 106.20 19.97 116.00 C 26.33 120.52 27.39 128.79 29.07 135.90 C 35.99 142.39 37.40 152.84 42.12 160.98 C 43.54 160.92 44.29 159.39 43.79 158.14 C 42.85 149.99 38.87 142.68 37.28 134.70 C 35.70 127.28 30.30 120.75 32.02 112.80 C 38.84 115.08 35.75 125.33 41.88 127.13 C 41.53 118.51 40.87 110.03 36.83 102.13 C 35.25 99.28 35.72 90.97 39.20 95.76 C 46.56 114.66 49.98 135.21 59.91 153.01 C 61.71 154.48 64.64 155.00 63.45 158.60 C 63.77 171.25 75.71 178.81 80.14 189.86 C 83.02 188.65 85.28 186.52 87.37 184.27 C 89.54 184.10 93.41 186.05 91.81 182.30 C 83.15 177.39 76.13 170.31 69.77 162.73 C 66.64 163.21 65.47 160.88 65.86 158.04 C 67.80 152.52 57.81 147.68 63.69 142.78 C 65.99 139.52 64.11 147.56 65.68 145.52 C 66.20 138.89 72.15 134.77 72.21 128.00 C 78.31 129.18 80.88 136.87 86.93 138.98 C 87.79 134.48 85.64 128.74 89.22 125.07 C 92.40 123.93 95.17 128.78 97.99 126.00 C 100.87 123.21 103.41 126.74 105.02 128.98 C 101.36 126.55 97.76 131.26 94.34 128.66 C 92.65 127.86 90.92 127.07 89.05 126.81 C 87.78 140.13 95.13 152.13 95.92 165.18 C 88.88 159.97 88.65 150.47 82.31 144.74 C 86.77 153.30 73.27 150.28 76.91 158.02 C 74.12 166.52 83.34 169.38 86.61 175.39 C 88.84 179.77 96.08 178.73 97.01 184.01 C 96.29 187.92 88.88 186.23 90.11 190.76 C 93.42 195.25 107.02 204.01 106.81 192.80 C 110.12 188.66 106.85 202.13 107.96 202.97 C 95.73 205.74 85.20 197.72 76.12 190.85 C 73.00 189.42 74.03 185.22 72.22 182.74 C 69.55 178.50 66.33 174.66 62.97 170.99 C 59.54 162.57 58.42 149.80 49.50 145.50 C 48.61 142.94 41.90 135.14 43.34 141.67 C 49.20 153.26 52.12 167.40 48.95 180.15 C 40.36 171.02 34.45 159.45 31.77 147.25 C 26.97 141.98 30.72 155.39 25.20 152.93 C 22.90 143.76 18.82 135.14 18.48 125.47 C 14.03 124.66 11.49 127.84 10.64 131.82 C 2.19 131.41 7.55 116.61 0.00 115.60 L 0.00 85.29 Z" />
<path fill="#666688" d=" M 232.08 74.81 C 238.19 73.79 234.67 85.44 230.98 83.08 C 231.18 80.30 231.03 77.42 232.08 74.81 Z" />
<path fill="#706e92" d=" M 221.14 92.27 C 222.90 87.79 216.47 74.30 224.98 76.04 C 225.43 80.10 223.24 83.79 222.81 87.75 C 222.34 89.29 221.84 90.82 221.14 92.27 Z" />
<path fill="#a391b5" d=" M 322.01 80.15 C 325.05 76.61 329.15 74.37 334.13 75.74 C 335.32 76.71 336.32 77.88 337.38 78.98 C 334.70 80.02 328.90 78.68 328.86 83.04 C 331.76 82.55 335.48 79.27 337.97 82.21 C 337.49 85.83 333.45 87.73 331.63 90.76 C 325.39 90.75 323.02 85.47 322.01 80.15 Z" />
<path fill="#8a7b96" d=" M 339.80 80.28 C 341.07 78.93 341.98 76.61 344.24 77.05 C 345.93 80.57 339.79 86.39 339.80 80.28 Z" />
<path fill="#52465d" d=" M 344.24 77.05 C 344.61 77.02 345.35 76.98 345.72 76.96 C 345.73 77.67 345.73 79.10 345.74 79.81 C 344.65 82.53 343.73 85.31 343.09 88.17 C 341.51 92.19 339.52 96.04 337.80 100.01 C 336.79 102.64 336.06 105.38 334.83 107.93 C 334.31 108.69 333.80 109.45 333.29 110.22 C 333.99 106.15 333.36 102.39 330.10 99.93 L 330.13 98.92 C 339.33 100.12 339.09 86.99 339.03 80.08 L 339.80 80.28 C 339.79 86.39 345.93 80.57 344.24 77.05 Z" />
<path fill="#8a7c98" d=" M 337.38 78.98 C 337.79 79.25 338.62 79.80 339.03 80.08 C 339.09 86.99 339.33 100.12 330.13 98.92 C 329.03 92.09 316.25 92.65 319.91 83.22 L 320.07 82.19 C 320.69 81.49 321.34 80.81 322.01 80.15 C 323.02 85.47 325.39 90.75 331.63 90.76 C 333.45 87.73 337.49 85.83 337.97 82.21 C 335.48 79.27 331.76 82.55 328.86 83.04 C 328.90 78.68 334.70 80.02 337.38 78.98 Z" />
<path fill="#89809d" d=" M 345.74 79.81 C 345.40 84.13 348.99 78.83 351.12 78.84 C 350.16 83.02 345.70 85.10 343.09 88.17 C 343.73 85.31 344.65 82.53 345.74 79.81 Z" />
<path fill="#424354" d=" M 108.61 80.46 C 110.46 79.18 113.48 83.72 113.20 79.97 C 119.06 81.13 127.98 82.38 129.87 88.83 C 129.04 92.07 126.54 94.14 124.03 96.10 C 121.86 100.24 120.96 105.09 117.87 108.74 C 112.21 108.80 110.26 102.37 105.07 101.06 C 101.42 107.20 114.19 112.85 111.82 118.66 C 110.19 117.50 108.61 116.27 107.18 114.86 C 106.14 112.57 104.05 111.15 102.06 109.76 C 100.38 108.55 98.73 107.29 97.08 106.04 C 94.48 100.25 92.57 94.15 89.39 88.63 C 87.99 86.56 89.61 82.72 92.21 84.82 C 95.72 86.98 98.54 80.67 101.78 83.10 C 104.34 84.72 104.95 77.78 108.61 80.46 Z" />
<path fill="#beb2d3" d=" M 390.18 79.87 C 391.76 82.59 393.19 85.39 394.69 88.15 C 395.13 90.04 395.66 91.91 396.23 93.77 C 394.36 96.14 399.45 107.72 393.80 105.32 C 389.39 104.83 389.03 99.23 386.74 96.18 C 390.06 96.03 398.00 101.22 394.62 93.53 C 390.59 90.20 387.73 85.05 390.18 79.87 Z" />
<path fill="#3a1f58" d=" M 394.69 88.15 C 402.54 86.72 396.03 100.05 397.32 104.23 C 397.15 100.73 397.41 97.12 396.23 93.77 C 395.66 91.91 395.13 90.04 394.69 88.15 Z" />
<path fill="#323442" d=" M 124.03 96.10 C 126.54 94.14 129.04 92.07 129.87 88.83 C 130.94 96.44 135.30 102.98 138.19 109.97 C 134.39 104.72 125.73 102.78 122.96 109.85 C 126.31 112.48 132.18 107.36 133.19 112.88 C 134.00 116.48 139.92 114.33 140.15 118.02 C 134.11 116.91 124.88 119.05 121.55 112.54 C 117.89 112.95 114.46 111.65 110.95 110.88 C 111.22 115.20 123.17 119.91 114.90 121.22 C 113.89 120.35 112.84 119.53 111.82 118.66 C 114.19 112.85 101.42 107.20 105.07 101.06 C 110.26 102.37 112.21 108.80 117.87 108.74 C 120.96 105.09 121.86 100.24 124.03 96.10 Z" />
<path fill="#3e3a40" d=" M 198.22 88.83 C 202.05 92.93 206.82 97.87 203.65 103.71 C 196.68 110.07 204.15 118.18 200.68 125.68 C 200.43 131.61 198.52 143.19 205.09 145.28 C 203.19 147.70 201.53 150.37 199.08 152.30 C 198.45 152.19 197.19 151.96 196.56 151.85 C 195.46 142.21 196.24 132.35 198.59 122.96 C 198.48 119.88 195.75 117.29 196.23 114.17 C 199.13 106.00 195.00 96.99 198.22 88.83 Z" />
<path fill="#4f453e" d=" M 298.25 89.83 C 298.38 93.15 300.91 95.89 304.35 94.45 C 312.10 91.53 316.25 98.72 319.60 104.11 C 319.38 99.16 324.19 92.09 327.95 98.79 L 327.04 98.99 C 326.45 99.15 325.26 99.46 324.67 99.62 C 320.37 118.70 319.15 138.41 321.24 157.88 C 319.99 164.96 317.09 173.88 319.96 181.51 C 320.03 181.88 320.18 182.62 320.26 182.99 C 316.73 184.39 312.93 185.28 310.44 188.36 C 303.92 187.82 303.16 195.59 301.00 198.82 C 297.01 192.63 296.81 183.43 296.82 175.78 C 297.67 157.46 295.96 139.05 297.77 120.78 C 298.41 133.40 297.43 146.12 298.26 158.70 C 300.92 163.93 305.48 155.42 308.80 154.88 C 310.81 152.96 316.35 152.86 315.60 149.37 C 309.97 139.22 317.29 126.51 309.04 116.99 C 304.53 114.85 303.39 108.13 298.05 107.80 C 297.96 101.81 298.04 95.81 298.25 89.83 Z" />
<path fill="#3d3d43" d=" M 254.92 107.99 C 256.08 102.13 255.59 94.80 260.80 90.69 C 260.51 95.96 259.49 101.27 260.46 106.54 C 261.58 109.60 264.21 112.77 262.02 116.01 C 257.93 123.84 262.05 132.24 266.09 139.02 C 272.08 137.27 270.18 127.78 264.90 126.15 C 266.35 126.06 269.26 125.89 270.72 125.81 C 271.22 118.84 273.11 111.39 272.32 104.71 C 269.72 100.51 267.38 106.83 263.96 106.09 C 263.34 103.45 265.55 100.67 268.33 101.49 C 274.11 102.12 274.07 94.86 275.25 90.95 C 276.17 91.30 277.09 91.67 278.01 92.04 C 278.06 93.26 278.10 94.47 278.15 95.69 C 272.65 111.61 275.59 128.30 273.71 144.58 C 270.85 145.60 267.96 146.53 265.06 147.39 C 265.86 150.70 270.80 150.73 272.98 153.14 C 272.16 155.21 270.95 157.10 269.77 158.97 C 266.75 156.11 263.90 152.29 259.25 153.29 C 256.74 155.98 255.17 159.50 254.91 163.18 C 257.50 161.15 259.16 158.28 261.10 155.69 C 263.20 160.81 270.36 162.12 271.00 167.85 C 269.12 170.32 265.62 171.24 263.13 173.07 C 260.53 170.76 258.50 170.61 258.49 174.63 C 254.52 179.53 252.90 186.20 248.59 190.62 C 243.55 185.64 241.46 196.49 236.99 198.04 C 231.54 196.33 232.11 189.81 230.83 185.26 C 246.20 189.62 251.00 169.34 253.09 158.08 C 258.92 150.10 258.29 139.30 258.95 129.90 C 251.51 131.43 248.68 141.17 243.00 145.88 C 241.06 148.45 239.63 151.37 237.76 154.00 C 233.70 152.34 239.33 147.16 238.55 144.45 C 243.20 131.95 249.49 120.04 254.92 107.99 Z" />
<path fill="#3d3c44" d=" M 226.13 108.09 C 231.00 103.25 233.29 96.18 238.98 91.91 C 234.56 102.43 225.30 110.65 223.20 122.17 C 223.35 128.21 224.10 134.26 222.70 140.22 C 220.92 137.78 224.84 126.39 220.05 128.97 C 212.99 123.10 220.71 113.73 217.64 106.35 C 215.45 99.25 222.56 113.47 222.28 106.83 C 222.54 108.45 223.06 111.69 223.32 113.31 C 224.09 110.83 224.77 108.31 225.68 105.87 C 225.79 106.42 226.02 107.53 226.13 108.09 Z" />
<path fill="#958bac" d=" M 381.95 93.26 C 382.44 93.17 383.42 92.97 383.91 92.87 C 384.81 94.01 385.76 95.11 386.74 96.18 C 389.03 99.23 389.39 104.83 393.80 105.32 C 399.45 107.72 394.36 96.14 396.23 93.77 C 397.41 97.12 397.15 100.73 397.32 104.23 C 396.93 107.75 396.46 111.26 395.85 114.75 C 395.61 115.38 395.13 116.65 394.89 117.28 C 390.73 115.58 396.03 109.05 392.42 105.89 C 389.12 116.48 380.75 125.41 382.36 137.39 L 382.02 138.22 C 379.60 138.42 377.18 138.53 374.78 138.44 C 381.89 130.49 380.30 116.88 389.13 110.95 C 388.89 104.37 384.84 98.90 381.95 93.26 Z" />
<path fill="#aea8c2" d=" M 353.27 94.21 C 358.62 92.35 353.10 99.92 356.28 101.72 C 364.28 107.71 361.72 120.00 371.11 125.02 C 379.14 124.52 379.29 106.53 389.13 110.95 C 380.30 116.88 381.89 130.49 374.78 138.44 C 374.28 138.44 373.28 138.42 372.78 138.41 C 368.24 139.40 366.24 134.48 363.34 132.05 C 361.57 133.89 360.26 137.06 357.14 136.02 C 357.29 128.29 360.28 120.18 358.57 112.59 C 354.94 111.58 354.27 107.96 352.81 105.02 C 349.99 104.44 349.68 108.14 349.04 110.05 C 348.31 114.37 345.72 108.02 343.24 108.04 C 349.50 107.20 350.42 98.66 353.27 94.21 Z" />
<path fill="#352f2b" d=" M 278.15 95.69 C 281.61 109.45 277.63 122.15 278.19 135.69 C 276.85 162.82 277.91 190.12 275.20 217.11 C 274.25 217.48 273.32 217.86 272.39 218.24 C 269.59 219.06 266.98 220.44 264.16 221.16 C 261.66 211.06 265.54 200.73 263.53 190.53 C 260.67 184.66 267.68 178.12 263.13 173.07 C 265.62 171.24 269.12 170.32 271.00 167.85 C 270.36 162.12 263.20 160.81 261.10 155.69 C 259.16 158.28 257.50 161.15 254.91 163.18 C 255.17 159.50 256.74 155.98 259.25 153.29 C 263.90 152.29 266.75 156.11 269.77 158.97 C 270.95 157.10 272.16 155.21 272.98 153.14 C 270.80 150.73 265.86 150.70 265.06 147.39 C 267.96 146.53 270.85 145.60 273.71 144.58 C 275.59 128.30 272.65 111.61 278.15 95.69 Z" />
<path fill="#3c3433" d=" M 324.67 99.62 C 325.26 99.46 326.45 99.15 327.04 98.99 C 325.43 109.59 323.37 120.20 324.94 130.95 C 324.08 134.27 320.17 142.33 325.93 142.14 C 325.87 143.36 325.81 144.58 325.75 145.80 C 325.27 153.50 324.15 161.16 323.97 168.87 C 325.80 172.06 329.39 173.83 331.04 177.16 C 329.74 176.66 328.46 176.17 327.18 175.66 C 323.56 168.09 320.91 176.60 319.96 181.51 C 317.09 173.88 319.99 164.96 321.24 157.88 C 319.15 138.41 320.37 118.70 324.67 99.62 Z" />
<path fill="#2c1f1b" d=" M 327.04 98.99 L 327.95 98.79 C 328.49 99.08 329.56 99.64 330.10 99.93 C 333.36 102.39 333.99 106.15 333.29 110.22 C 332.41 112.05 331.49 113.86 330.71 115.73 C 329.72 117.90 329.11 120.23 328.89 122.61 C 328.01 129.14 326.45 135.56 325.93 142.14 C 320.17 142.33 324.08 134.27 324.94 130.95 C 323.37 120.20 325.43 109.59 327.04 98.99 Z" />
<path fill="#a397b4" d=" M 334.83 107.93 C 336.06 105.38 336.79 102.64 337.80 100.01 C 337.99 102.58 340.50 103.86 341.73 105.90 C 338.08 106.14 343.37 112.10 339.37 112.46 C 336.01 114.60 334.31 110.83 334.83 107.93 Z" />
<path fill="#5b5a5b" d=" M 174.27 100.77 C 175.34 109.47 174.94 118.25 175.00 127.00 C 173.23 118.36 174.15 109.50 174.27 100.77 Z" />
<path fill="#2c2a31" d=" M 200.68 125.68 C 204.15 118.18 196.68 110.07 203.65 103.71 C 205.34 110.39 208.00 117.01 208.86 123.84 C 204.08 129.58 206.74 137.04 206.26 143.86 C 205.97 144.22 205.38 144.93 205.09 145.28 C 198.52 143.19 200.43 131.61 200.68 125.68 Z" />
<path fill="#20232e" d=" M 122.96 109.85 C 125.73 102.78 134.39 104.72 138.19 109.97 C 139.84 113.91 146.06 119.73 140.91 123.39 C 138.11 126.29 138.33 124.06 138.88 121.10 C 133.17 120.43 124.09 118.15 125.10 126.83 C 131.26 130.95 139.21 127.75 146.01 127.93 C 146.87 128.54 147.69 129.20 148.48 129.91 C 144.84 134.08 139.17 135.93 133.76 135.84 C 136.80 133.83 143.74 134.80 144.02 130.20 C 137.58 127.78 131.32 131.45 126.16 134.99 C 123.30 129.03 120.85 124.05 114.90 121.22 C 123.17 119.91 111.22 115.20 110.95 110.88 C 114.46 111.65 117.89 112.95 121.55 112.54 C 124.88 119.05 134.11 116.91 140.15 118.02 C 139.92 114.33 134.00 116.48 133.19 112.88 C 132.18 107.36 126.31 112.48 122.96 109.85 Z" />
<path fill="#958fa8" d=" M 349.04 110.05 C 349.68 108.14 349.99 104.44 352.81 105.02 C 354.27 107.96 354.94 111.58 358.57 112.59 C 360.28 120.18 357.29 128.29 357.14 136.02 C 360.26 137.06 361.57 133.89 363.34 132.05 C 366.24 134.48 368.24 139.40 372.78 138.41 C 371.92 142.68 373.05 147.07 372.77 151.38 C 369.55 147.62 371.47 138.59 365.24 138.93 C 364.18 142.85 366.01 149.25 362.16 152.04 C 352.02 146.43 356.81 133.74 356.40 124.15 C 356.29 121.78 353.67 121.57 351.97 120.76 C 352.04 119.18 352.13 117.60 352.23 116.03 C 352.46 113.73 352.44 107.29 349.04 110.05 Z" />
<path fill="#877b96" d=" M 339.37 112.46 C 343.37 112.10 338.08 106.14 341.73 105.90 C 342.11 106.43 342.86 107.51 343.24 108.04 C 345.72 108.02 348.31 114.37 349.04 110.05 C 352.44 107.29 352.46 113.73 352.23 116.03 C 348.45 115.36 346.02 117.23 343.93 112.79 C 343.81 115.45 345.42 117.57 346.77 119.70 C 342.40 119.57 338.84 123.53 334.44 122.85 C 334.00 120.09 332.56 117.77 330.71 115.73 C 331.49 113.86 332.41 112.05 333.29 110.22 C 333.80 109.45 334.31 108.69 334.83 107.93 C 334.31 110.83 336.01 114.60 339.37 112.46 Z" />
<path fill="#7e7690" d=" M 392.42 105.89 C 396.03 109.05 390.73 115.58 394.89 117.28 C 396.84 123.64 391.98 128.24 389.10 133.17 C 389.35 129.72 389.86 126.29 389.99 122.84 C 384.33 125.23 384.44 132.49 382.36 137.39 C 380.75 125.41 389.12 116.48 392.42 105.89 Z" />
<path fill="#5b504a" d=" M 298.05 107.80 C 303.39 108.13 304.53 114.85 309.04 116.99 C 317.29 126.51 309.97 139.22 315.60 149.37 C 316.35 152.86 310.81 152.96 308.80 154.88 C 305.48 155.42 300.92 163.93 298.26 158.70 C 297.43 146.12 298.41 133.40 297.77 120.78 C 297.94 116.45 297.97 112.12 298.05 107.80 Z" />
<path fill="#6b6378" d=" M 343.93 112.79 C 346.02 117.23 348.45 115.36 352.23 116.03 C 352.13 117.60 352.04 119.18 351.97 120.76 C 350.71 126.74 350.13 133.02 353.93 138.11 C 352.26 148.21 350.17 158.22 351.11 168.46 C 347.95 167.57 345.30 169.08 343.27 171.43 C 338.06 172.33 332.24 169.84 329.90 164.98 C 333.29 165.16 336.62 165.73 340.02 165.97 C 340.03 158.81 331.77 154.62 331.71 147.12 C 334.01 149.06 338.59 150.35 337.36 154.11 C 337.83 165.52 359.13 153.19 348.11 147.40 C 347.13 139.52 340.30 132.12 334.08 126.90 C 334.39 128.76 334.78 130.61 335.09 132.47 C 333.32 132.93 332.94 134.59 332.61 136.16 C 330.99 132.22 333.33 124.98 328.89 122.61 C 329.11 120.23 329.72 117.90 330.71 115.73 C 332.56 117.77 334.00 120.09 334.44 122.85 C 338.84 123.53 342.40 119.57 346.77 119.70 C 345.42 117.57 343.81 115.45 343.93 112.79 Z" />
<path fill="#11141c" d=" M 109.13 126.82 C 106.95 123.18 98.64 111.51 107.18 114.86 C 108.61 116.27 110.19 117.50 111.82 118.66 C 112.84 119.53 113.89 120.35 114.90 121.22 C 120.85 124.05 123.30 129.03 126.16 134.99 C 131.32 131.45 137.58 127.78 144.02 130.20 C 143.74 134.80 136.80 133.83 133.76 135.84 C 130.86 135.79 127.27 135.06 127.95 138.76 C 120.43 136.22 119.96 127.39 112.75 125.05 C 112.93 128.81 117.59 130.87 116.91 134.77 C 114.84 137.75 111.65 133.92 109.89 132.35 C 113.89 132.09 111.20 127.94 109.13 126.82 Z" />
<path fill="#6b6579" d=" M 394.89 117.28 C 395.13 116.65 395.61 115.38 395.85 114.75 C 395.96 118.42 395.93 122.09 395.85 125.77 C 394.76 135.89 393.34 146.01 393.17 156.20 C 393.19 157.42 393.25 158.64 393.36 159.85 C 391.36 164.84 382.41 159.03 378.06 162.09 C 376.29 168.77 387.73 161.29 388.69 164.83 C 387.48 169.00 395.25 165.55 392.06 171.15 L 391.74 171.89 C 390.49 174.28 390.18 176.97 389.58 179.57 C 383.19 179.83 378.32 185.16 371.87 184.88 C 373.02 181.73 375.38 178.85 370.18 180.11 C 367.07 178.24 363.39 178.16 359.88 177.78 C 360.12 177.36 360.60 176.52 360.85 176.10 C 363.44 176.32 366.38 177.59 368.68 175.72 C 372.32 171.02 361.01 159.25 369.89 157.06 C 372.81 159.34 372.09 165.37 375.87 165.93 C 376.78 156.47 376.43 146.63 382.02 138.22 L 382.36 137.39 C 384.44 132.49 384.33 125.23 389.99 122.84 C 389.86 126.29 389.35 129.72 389.10 133.17 C 391.98 128.24 396.84 123.64 394.89 117.28 Z" />
<path fill="#0e0f14" d=" M 0.00 115.60 C 7.55 116.61 2.19 131.41 10.64 131.82 C 11.49 127.84 14.03 124.66 18.48 125.47 C 18.82 135.14 22.90 143.76 25.20 152.93 C 30.72 155.39 26.97 141.98 31.77 147.25 C 34.45 159.45 40.36 171.02 48.95 180.15 C 52.12 167.40 49.20 153.26 43.34 141.67 C 41.90 135.14 48.61 142.94 49.50 145.50 C 58.42 149.80 59.54 162.57 62.97 170.99 C 66.33 174.66 69.55 178.50 72.22 182.74 C 74.03 185.22 73.00 189.42 76.12 190.85 C 85.20 197.72 95.73 205.74 107.96 202.97 C 106.85 202.13 110.12 188.66 106.81 192.80 C 107.02 204.01 93.42 195.25 90.11 190.76 C 88.88 186.23 96.29 187.92 97.01 184.01 C 96.08 178.73 88.84 179.77 86.61 175.39 C 83.34 169.38 74.12 166.52 76.91 158.02 C 73.27 150.28 86.77 153.30 82.31 144.74 C 88.65 150.47 88.88 159.97 95.92 165.18 C 95.13 152.13 87.78 140.13 89.05 126.81 C 90.92 127.07 92.65 127.86 94.34 128.66 C 97.76 131.26 101.36 126.55 105.02 128.98 C 105.73 129.58 106.46 130.17 107.20 130.74 C 102.27 131.79 96.31 130.54 92.12 133.28 C 93.64 137.39 91.31 146.57 97.85 146.33 C 95.44 151.79 96.75 157.77 98.82 163.11 C 100.73 166.79 100.30 174.27 106.02 174.33 C 99.96 176.58 104.93 185.44 109.74 184.89 C 113.65 181.11 113.75 174.96 114.02 169.92 C 110.63 169.60 108.43 172.46 106.02 174.33 C 107.55 169.57 111.65 164.71 116.99 164.93 C 116.63 176.21 110.00 189.82 119.73 199.21 C 121.68 200.20 117.54 209.83 122.06 207.17 L 122.95 206.91 C 122.91 213.31 123.34 219.80 125.02 226.00 L 106.96 226.00 C 108.16 223.16 108.99 218.83 104.73 218.49 C 97.51 219.34 90.57 213.40 83.67 214.59 C 82.40 219.55 89.51 222.38 92.45 226.00 L 78.29 226.00 C 68.87 220.60 67.47 207.35 71.01 198.12 C 65.27 198.02 61.64 192.35 56.24 192.04 C 50.69 198.54 60.38 204.83 58.32 211.56 C 57.32 217.99 65.06 220.82 67.59 226.00 L 22.31 226.00 C 26.06 224.47 29.38 220.75 23.15 220.28 C 27.87 208.77 15.37 200.49 18.16 189.05 C 20.27 182.01 18.53 172.43 10.46 170.38 C 7.79 160.48 7.81 150.08 4.86 140.24 C 3.35 139.22 1.63 138.60 0.00 137.82 L 0.00 115.60 Z" />
<path fill="#383a47" d=" M 125.10 126.83 C 124.09 118.15 133.17 120.43 138.88 121.10 C 138.33 124.06 138.11 126.29 140.91 123.39 C 141.62 125.85 143.99 126.79 146.01 127.93 C 139.21 127.75 131.26 130.95 125.10 126.83 Z" />
<path fill="#848093" d=" M 351.97 120.76 C 353.67 121.57 356.29 121.78 356.40 124.15 C 356.81 133.74 352.02 146.43 362.16 152.04 C 366.01 149.25 364.18 142.85 365.24 138.93 C 371.47 138.59 369.55 147.62 372.77 151.38 C 373.05 147.07 371.92 142.68 372.78 138.41 C 373.28 138.42 374.28 138.44 374.78 138.44 C 377.18 138.53 379.60 138.42 382.02 138.22 C 376.43 146.63 376.78 156.47 375.87 165.93 C 372.09 165.37 372.81 159.34 369.89 157.06 C 361.01 159.25 372.32 171.02 368.68 175.72 C 366.38 177.59 363.44 176.32 360.85 176.10 C 361.11 171.99 368.84 176.21 366.87 171.23 C 362.44 167.24 356.80 171.84 351.88 168.93 C 352.53 173.15 357.87 173.84 360.85 176.10 C 360.60 176.52 360.12 177.36 359.88 177.78 C 357.04 178.73 354.28 179.86 351.66 181.29 C 350.37 180.61 349.15 179.82 347.97 179.00 C 345.05 176.24 341.80 175.08 342.08 180.39 C 325.39 179.16 326.73 157.71 325.75 145.80 C 325.81 144.58 325.87 143.36 325.93 142.14 C 326.45 135.56 328.01 129.14 328.89 122.61 C 333.33 124.98 330.99 132.22 332.61 136.16 C 332.84 138.58 337.97 141.93 334.06 143.03 C 332.59 142.09 331.28 140.93 329.86 139.92 C 329.28 142.56 330.60 144.92 331.71 147.12 C 331.77 154.62 340.03 158.81 340.02 165.97 C 336.62 165.73 333.29 165.16 329.90 164.98 C 332.24 169.84 338.06 172.33 343.27 171.43 C 345.30 169.08 347.95 167.57 351.11 168.46 C 350.17 158.22 352.26 148.21 353.93 138.11 C 350.13 133.02 350.71 126.74 351.97 120.76 Z" />
<path fill="#0a080b" d=" M 112.75 125.05 C 119.96 127.39 120.43 136.22 127.95 138.76 C 128.93 139.20 129.93 139.61 130.93 140.01 C 142.61 147.51 149.88 161.71 164.88 163.31 C 166.46 167.80 162.78 172.63 165.18 176.85 C 170.12 176.72 175.70 175.36 179.16 179.91 C 185.24 184.80 186.86 172.73 192.66 175.32 C 195.21 176.39 199.19 177.64 197.11 181.08 C 196.38 182.33 195.67 183.59 194.95 184.83 C 191.22 184.93 187.52 185.08 183.80 185.15 C 182.22 185.06 180.64 184.99 179.06 184.88 C 172.52 184.25 166.50 181.66 160.26 179.86 C 147.42 178.38 134.85 185.18 122.73 188.74 C 121.08 194.29 122.28 201.08 122.06 207.17 C 117.54 209.83 121.68 200.20 119.73 199.21 C 110.00 189.82 116.63 176.21 116.99 164.93 C 111.65 164.71 107.55 169.57 106.02 174.33 C 100.30 174.27 100.73 166.79 98.82 163.11 C 96.75 157.77 95.44 151.79 97.85 146.33 C 91.31 146.57 93.64 137.39 92.12 133.28 C 96.31 130.54 102.27 131.79 107.20 130.74 C 108.10 131.26 109.00 131.80 109.89 132.35 C 111.65 133.92 114.84 137.75 116.91 134.77 C 117.59 130.87 112.93 128.81 112.75 125.05 Z" />
<path fill="#4a3c4f" d=" M 393.17 156.20 C 393.34 146.01 394.76 135.89 395.85 125.77 C 396.26 135.98 394.99 146.16 393.17 156.20 Z" />
<path fill="#3d3f4b" d=" M 175.00 127.00 C 176.67 135.22 175.72 143.65 176.06 151.97 C 184.49 153.85 178.00 140.07 180.36 135.72 C 181.99 141.36 178.88 148.78 182.91 153.45 C 183.17 153.75 183.69 154.34 183.95 154.64 C 179.55 158.30 174.76 162.63 175.96 168.98 C 176.32 170.90 174.31 173.23 172.63 171.40 C 171.50 164.29 172.50 156.29 168.34 149.94 C 167.56 153.30 166.54 156.60 165.63 159.93 C 161.42 158.53 156.74 158.75 152.66 157.26 C 149.44 151.42 153.93 146.26 156.16 141.12 C 147.68 140.94 139.17 142.65 130.93 140.01 C 129.93 139.61 128.93 139.20 127.95 138.76 C 127.27 135.06 130.86 135.79 133.76 135.84 C 139.17 135.93 144.84 134.08 148.48 129.91 C 153.12 132.59 154.96 137.78 158.40 141.59 C 163.86 144.81 169.52 147.70 174.98 150.94 C 175.17 142.96 175.00 134.98 175.00 127.00 Z" />
<path fill="#91889e" d=" M 334.08 126.90 C 340.30 132.12 347.13 139.52 348.11 147.40 C 341.99 144.50 337.28 138.85 335.09 132.47 C 334.78 130.61 334.39 128.76 334.08 126.90 Z" />
<path fill="#131217" d=" M 220.05 128.97 C 224.84 126.39 220.92 137.78 222.70 140.22 C 223.00 147.13 223.57 154.05 225.24 160.79 C 225.87 165.05 226.02 169.26 221.19 167.97 C 220.67 167.87 219.62 167.68 219.10 167.59 C 217.85 166.32 216.66 165.01 215.53 163.65 L 215.67 162.67 C 216.66 160.16 215.37 158.48 212.85 158.07 C 210.44 153.76 216.16 150.89 216.81 146.87 C 218.12 141.57 219.99 136.29 219.96 130.77 C 219.98 130.32 220.02 129.42 220.05 128.97 Z" />
<path fill="#3f3a3c" d=" M 206.96 151.02 C 218.21 151.76 210.45 134.19 219.96 130.77 C 219.99 136.29 218.12 141.57 216.81 146.87 C 216.16 150.89 210.44 153.76 212.85 158.07 C 209.30 158.67 206.56 156.82 204.69 153.94 C 205.44 152.97 206.19 151.98 206.96 151.02 Z" />
<path fill="#5c5568" d=" M 332.61 136.16 C 332.94 134.59 333.32 132.93 335.09 132.47 C 337.28 138.85 341.99 144.50 348.11 147.40 C 359.13 153.19 337.83 165.52 337.36 154.11 C 338.59 150.35 334.01 149.06 331.71 147.12 C 330.60 144.92 329.28 142.56 329.86 139.92 C 331.28 140.93 332.59 142.09 334.06 143.03 C 337.97 141.93 332.84 138.58 332.61 136.16 Z" />
<path fill="#211711" d=" M 278.19 135.69 C 282.03 139.30 281.06 144.96 282.43 149.61 C 285.14 154.42 288.62 158.74 291.70 163.30 C 291.56 170.07 293.03 176.13 295.87 182.18 C 296.86 193.32 294.44 204.95 296.90 215.88 C 289.64 218.50 282.37 215.43 275.20 217.11 C 277.91 190.12 276.85 162.82 278.19 135.69 Z" />
<path fill="#050407" d=" M 0.00 137.82 C 1.63 138.60 3.35 139.22 4.86 140.24 C 7.81 150.08 7.79 160.48 10.46 170.38 C 18.53 172.43 20.27 182.01 18.16 189.05 C 15.37 200.49 27.87 208.77 23.15 220.28 C 29.38 220.75 26.06 224.47 22.31 226.00 L 0.00 226.00 L 0.00 137.82 Z" />
<path fill="#26272f" d=" M 130.93 140.01 C 139.17 142.65 147.68 140.94 156.16 141.12 C 153.93 146.26 149.44 151.42 152.66 157.26 C 156.74 158.75 161.42 158.53 165.63 159.93 C 166.54 156.60 167.56 153.30 168.34 149.94 C 172.50 156.29 171.50 164.29 172.63 171.40 C 174.31 173.23 176.32 170.90 175.96 168.98 C 174.76 162.63 179.55 158.30 183.95 154.64 L 184.62 155.32 C 186.20 157.32 187.26 160.04 189.69 161.15 C 188.86 156.18 192.66 157.07 196.10 157.89 C 197.66 158.50 199.35 159.22 200.04 160.89 C 200.03 162.56 199.96 164.24 200.02 165.92 C 199.78 169.77 202.77 172.98 202.86 176.72 C 201.13 178.41 199.03 179.64 197.11 181.08 C 199.19 177.64 195.21 176.39 192.66 175.32 C 186.86 172.73 185.24 184.80 179.16 179.91 C 175.70 175.36 170.12 176.72 165.18 176.85 C 162.78 172.63 166.46 167.80 164.88 163.31 C 149.88 161.71 142.61 147.51 130.93 140.01 Z" />
<path fill="#bba69d" d=" M 206.26 143.86 C 210.91 143.07 208.94 148.88 206.96 151.02 C 206.19 151.98 205.44 152.97 204.69 153.94 C 202.48 156.66 199.28 158.34 195.76 157.19 C 193.90 154.74 197.83 153.82 199.08 152.30 C 201.53 150.37 203.19 147.70 205.09 145.28 C 205.38 144.93 205.97 144.22 206.26 143.86 Z" />
<path fill="#555056" d=" M 323.97 168.87 C 324.15 161.16 325.27 153.50 325.75 145.80 C 326.73 157.71 325.39 179.16 342.08 180.39 C 340.71 180.71 339.33 180.96 337.95 181.17 C 335.48 180.14 333.11 178.85 331.04 177.16 C 329.39 173.83 325.80 172.06 323.97 168.87 Z" />
<path fill="#84848a" d=" M 122.08 152.96 C 126.91 158.11 133.96 162.45 137.00 168.73 C 131.95 169.55 127.17 171.63 122.07 172.09 C 121.98 165.71 121.81 159.33 122.08 152.96 Z" />
<path fill="#a28676" d=" M 195.76 157.19 C 199.28 158.34 202.48 156.66 204.69 153.94 C 206.56 156.82 209.30 158.67 212.85 158.07 C 215.37 158.48 216.66 160.16 215.67 162.67 C 214.04 163.31 212.48 164.11 210.99 165.02 C 206.43 165.61 201.28 166.12 200.04 160.89 C 199.35 159.22 197.66 158.50 196.10 157.89 L 195.76 157.19 Z" />
<path fill="#4b4252" d=" M 393.36 159.85 C 393.00 163.37 395.78 168.70 392.06 171.15 C 395.25 165.55 387.48 169.00 388.69 164.83 C 387.73 161.29 376.29 168.77 378.06 162.09 C 382.41 159.03 391.36 164.84 393.36 159.85 Z" />
<path fill="#6d5449" d=" M 200.04 160.89 C 201.28 166.12 206.43 165.61 210.99 165.02 C 210.63 166.85 212.07 170.59 208.95 169.96 C 205.67 169.49 208.95 172.62 209.09 174.16 C 205.25 172.60 202.66 168.98 200.02 165.92 C 199.96 164.24 200.03 162.56 200.04 160.89 Z" />
<path fill="#2a2825" d=" M 225.24 160.79 C 226.46 167.13 227.73 173.46 229.23 179.75 C 225.59 179.53 218.10 181.70 219.47 186.63 C 214.80 191.42 213.52 199.42 206.52 201.49 C 207.51 205.06 204.43 206.56 203.30 209.04 C 203.61 214.72 204.52 220.35 205.16 226.00 L 192.39 226.00 C 193.70 222.83 197.18 222.38 199.80 220.78 C 203.42 217.39 201.51 211.75 201.12 207.52 C 201.05 205.15 200.98 202.79 200.92 200.43 C 203.36 194.70 208.66 191.19 212.17 186.23 C 213.87 182.08 212.72 177.43 210.14 173.95 C 213.23 172.32 216.93 176.39 220.03 174.10 C 222.99 173.29 221.95 170.08 221.19 167.97 C 226.02 169.26 225.87 165.05 225.24 160.79 Z" />
<path fill="#3b3634" d=" M 210.99 165.02 C 212.48 164.11 214.04 163.31 215.67 162.67 L 215.53 163.65 C 214.14 166.47 216.13 168.76 219.10 167.59 C 219.62 167.68 220.67 167.87 221.19 167.97 C 221.95 170.08 222.99 173.29 220.03 174.10 C 216.93 176.39 213.23 172.32 210.14 173.95 C 212.72 177.43 213.87 182.08 212.17 186.23 C 208.66 191.19 203.36 194.70 200.92 200.43 C 198.27 196.10 202.62 184.67 194.95 184.83 C 195.67 183.59 196.38 182.33 197.11 181.08 C 199.03 179.64 201.13 178.41 202.86 176.72 C 202.77 172.98 199.78 169.77 200.02 165.92 C 202.66 168.98 205.25 172.60 209.09 174.16 C 208.95 172.62 205.67 169.49 208.95 169.96 C 212.07 170.59 210.63 166.85 210.99 165.02 Z" />
<path fill="#81817f" d=" M 219.10 167.59 C 216.13 168.76 214.14 166.47 215.53 163.65 C 216.66 165.01 217.85 166.32 219.10 167.59 Z" />
<path fill="#1d0f09" d=" M 391.84 174.04 C 396.10 174.27 396.48 168.84 400.00 167.36 L 400.00 226.00 L 389.68 226.00 C 393.51 212.09 397.12 194.87 387.26 182.93 C 391.28 181.72 391.19 177.55 391.84 174.04 Z" />
<path fill="#a39fb4" d=" M 351.88 168.93 C 356.80 171.84 362.44 167.24 366.87 171.23 C 368.84 176.21 361.11 171.99 360.85 176.10 C 357.87 173.84 352.53 173.15 351.88 168.93 Z" />
<path fill="#1e2026" d=" M 106.02 174.33 C 108.43 172.46 110.63 169.60 114.02 169.92 C 113.75 174.96 113.65 181.11 109.74 184.89 C 104.93 185.44 99.96 176.58 106.02 174.33 Z" />
<path fill="#232121" d=" M 258.49 174.63 C 258.50 170.61 260.53 170.76 263.13 173.07 C 267.68 178.12 260.67 184.66 263.53 190.53 C 265.54 200.73 261.66 211.06 264.16 221.16 C 266.98 220.44 269.59 219.06 272.39 218.24 C 268.92 223.28 261.30 221.30 258.41 226.00 L 232.01 226.00 C 232.04 216.52 233.38 206.37 227.82 198.14 C 225.95 193.10 231.00 188.88 230.37 183.77 C 230.48 184.14 230.71 184.89 230.83 185.26 C 232.11 189.81 231.54 196.33 236.99 198.04 C 241.46 196.49 243.55 185.64 248.59 190.62 C 252.90 186.20 254.52 179.53 258.49 174.63 Z" />
<path fill="#26201d" d=" M 319.96 181.51 C 320.91 176.60 323.56 168.09 327.18 175.66 C 326.27 186.44 322.26 196.81 322.41 207.66 C 322.91 210.68 320.86 214.36 323.98 216.47 C 321.87 219.36 318.97 222.31 320.97 226.00 L 317.95 226.00 C 318.11 224.08 318.34 222.17 318.40 220.25 C 318.73 207.85 321.33 195.33 320.26 182.99 C 320.18 182.62 320.03 181.88 319.96 181.51 Z" />
<path fill="#433e4b" d=" M 389.58 179.57 C 390.18 176.97 390.49 174.28 391.74 171.89 C 391.77 172.43 391.82 173.51 391.84 174.04 C 391.19 177.55 391.28 181.72 387.26 182.93 C 382.19 188.80 368.34 180.82 370.85 191.88 L 369.97 192.01 C 370.00 190.32 370.03 188.64 369.98 186.95 C 367.94 188.09 365.01 189.45 366.86 192.18 C 365.42 192.09 364.67 190.91 363.93 189.87 C 363.39 188.29 362.79 186.74 362.13 185.22 C 364.51 183.07 367.15 181.23 370.18 180.11 C 375.38 178.85 373.02 181.73 371.87 184.88 C 378.32 185.16 383.19 179.83 389.58 179.57 Z" />
<path fill="#594447" d=" M 146.35 174.41 C 148.36 173.24 151.38 174.18 151.10 176.85 C 145.10 175.17 140.50 179.75 134.86 180.05 C 137.00 175.63 142.46 176.23 146.35 174.41 Z" />
<path fill="#413c36" d=" M 295.87 182.18 C 296.11 180.58 296.59 177.38 296.82 175.78 C 296.81 183.43 297.01 192.63 301.00 198.82 C 303.16 195.59 303.92 187.82 310.44 188.36 C 312.93 185.28 316.73 184.39 320.26 182.99 C 321.33 195.33 318.73 207.85 318.40 220.25 C 310.82 220.50 304.49 215.43 296.90 215.88 C 294.44 204.95 296.86 193.32 295.87 182.18 Z" />
<path fill="#0b0707" d=" M 327.18 175.66 C 328.46 176.17 329.74 176.66 331.04 177.16 C 333.11 178.85 335.48 180.14 337.95 181.17 C 340.02 181.69 342.16 183.33 340.63 185.64 C 336.88 191.71 334.82 198.56 331.77 204.91 C 331.49 205.22 330.94 205.82 330.67 206.12 C 328.35 208.28 329.03 211.95 326.40 213.87 C 325.59 214.74 324.78 215.60 323.98 216.47 C 320.86 214.36 322.91 210.68 322.41 207.66 C 322.26 196.81 326.27 186.44 327.18 175.66 Z" />
<path fill="#56525c" d=" M 342.08 180.39 C 341.80 175.08 345.05 176.24 347.97 179.00 C 346.00 179.46 344.05 179.97 342.08 180.39 Z" />
<path fill="#5a5262" d=" M 351.66 181.29 C 354.28 179.86 357.04 178.73 359.88 177.78 C 363.39 178.16 367.07 178.24 370.18 180.11 C 367.15 181.23 364.51 183.07 362.13 185.22 C 358.53 184.23 354.87 183.25 351.66 181.29 Z" />
<path fill="#494238" d=" M 122.73 188.74 C 134.85 185.18 147.42 178.38 160.26 179.86 C 148.38 185.28 135.55 188.24 123.21 192.39 C 122.95 197.22 123.00 202.07 122.95 206.91 L 122.06 207.17 C 122.28 201.08 121.08 194.29 122.73 188.74 Z" />
<path fill="#1d1916" d=" M 219.47 186.63 C 218.10 181.70 225.59 179.53 229.23 179.75 C 229.61 181.09 229.99 182.43 230.37 183.77 C 231.00 188.88 225.95 193.10 227.82 198.14 C 226.33 196.35 224.39 192.39 221.69 194.61 C 221.55 199.10 220.25 203.86 216.93 207.05 C 214.83 207.05 210.43 204.69 212.35 208.53 C 216.02 210.29 219.59 212.74 218.22 217.79 C 221.91 219.87 219.63 222.96 218.57 226.00 L 205.16 226.00 C 204.52 220.35 203.61 214.72 203.30 209.04 C 204.43 206.56 207.51 205.06 206.52 201.49 C 213.52 199.42 214.80 191.42 219.47 186.63 Z" />
<path fill="#2e241f" d=" M 342.08 180.39 C 344.05 179.97 346.00 179.46 347.97 179.00 C 349.15 179.82 350.37 180.61 351.66 181.29 C 354.87 183.25 358.53 184.23 362.13 185.22 C 362.79 186.74 363.39 188.29 363.93 189.87 C 354.64 192.07 352.35 205.32 343.96 210.00 C 347.87 204.34 348.41 196.29 354.77 192.62 C 356.14 186.72 345.97 182.53 342.15 187.21 C 339.25 192.66 336.31 198.22 335.41 204.42 C 334.20 204.67 332.99 204.83 331.77 204.91 C 334.82 198.56 336.88 191.71 340.63 185.64 C 342.16 183.33 340.02 181.69 337.95 181.17 C 339.33 180.96 340.71 180.71 342.08 180.39 Z" />
<path fill="#736c62" d=" M 123.21 192.39 C 135.55 188.24 148.38 185.28 160.26 179.86 C 166.50 181.66 172.52 184.25 179.06 184.88 C 183.60 198.43 170.26 211.65 171.84 226.00 L 125.02 226.00 C 123.34 219.80 122.91 213.31 122.95 206.91 C 123.00 202.07 122.95 197.22 123.21 192.39 Z" />
<path fill="#030407" d=" M 387.26 182.93 C 397.12 194.87 393.51 212.09 389.68 226.00 L 338.99 226.00 C 339.57 223.74 339.98 221.45 340.22 219.13 C 341.90 216.17 344.94 213.82 343.96 210.00 C 352.35 205.32 354.64 192.07 363.93 189.87 C 364.67 190.91 365.42 192.09 366.86 192.18 C 367.63 192.14 369.19 192.05 369.97 192.01 L 370.85 191.88 C 368.34 180.82 382.19 188.80 387.26 182.93 Z" />
<path fill="#605953" d=" M 179.06 184.88 C 180.64 184.99 182.22 185.06 183.80 185.15 C 189.93 183.32 191.47 189.46 190.63 193.65 C 184.06 203.15 178.43 214.13 178.87 226.00 L 171.84 226.00 C 170.26 211.65 183.60 198.43 179.06 184.88 Z" />
<path fill="#514943" d=" M 183.80 185.15 C 187.52 185.08 191.22 184.93 194.95 184.83 C 202.62 184.67 198.27 196.10 200.92 200.43 C 200.98 202.79 201.05 205.15 201.12 207.52 C 200.46 214.75 192.46 214.37 187.26 216.24 C 184.76 218.81 184.39 222.64 183.71 226.00 L 178.87 226.00 C 178.43 214.13 184.06 203.15 190.63 193.65 C 191.47 189.46 189.93 183.32 183.80 185.15 Z" />
<path fill="#41322a" d=" M 342.15 187.21 C 345.97 182.53 356.14 186.72 354.77 192.62 C 348.41 196.29 347.87 204.34 343.96 210.00 C 338.71 214.72 334.75 207.94 330.67 206.12 C 330.94 205.82 331.49 205.22 331.77 204.91 C 332.99 204.83 334.20 204.67 335.41 204.42 C 336.31 198.22 339.25 192.66 342.15 187.21 Z" />
<path fill="#6f6b77" d=" M 366.86 192.18 C 365.01 189.45 367.94 188.09 369.98 186.95 C 370.03 188.64 370.00 190.32 369.97 192.01 C 369.19 192.05 367.63 192.14 366.86 192.18 Z" />
<path fill="#15191d" d=" M 56.24 192.04 C 61.64 192.35 65.27 198.02 71.01 198.12 C 67.47 207.35 68.87 220.60 78.29 226.00 L 67.59 226.00 C 65.06 220.82 57.32 217.99 58.32 211.56 C 60.38 204.83 50.69 198.54 56.24 192.04 Z" />
<path fill="#100c0a" d=" M 221.69 194.61 C 224.39 192.39 226.33 196.35 227.82 198.14 C 233.38 206.37 232.04 216.52 232.01 226.00 L 218.57 226.00 C 219.63 222.96 221.91 219.87 218.22 217.79 C 219.59 212.74 216.02 210.29 212.35 208.53 C 210.43 204.69 214.83 207.05 216.93 207.05 C 220.25 203.86 221.55 199.10 221.69 194.61 Z" />
<path fill="#231d18" d=" M 326.40 213.87 C 329.03 211.95 328.35 208.28 330.67 206.12 C 334.75 207.94 338.71 214.72 343.96 210.00 C 344.94 213.82 341.90 216.17 340.22 219.13 C 340.93 211.73 334.93 221.58 331.36 218.82 C 329.71 217.17 328.52 215.01 326.40 213.87 Z" />
<path fill="#423b31" d=" M 187.26 216.24 C 192.46 214.37 200.46 214.75 201.12 207.52 C 201.51 211.75 203.42 217.39 199.80 220.78 C 197.18 222.38 193.70 222.83 192.39 226.00 L 183.71 226.00 C 184.39 222.64 184.76 218.81 187.26 216.24 Z" />
<path fill="#1c1f25" d=" M 83.67 214.59 C 90.57 213.40 97.51 219.34 104.73 218.49 C 108.99 218.83 108.16 223.16 106.96 226.00 L 92.45 226.00 C 89.51 222.38 82.40 219.55 83.67 214.59 Z" />
<path fill="#483b30" d=" M 326.40 213.87 C 328.52 215.01 329.71 217.17 331.36 218.82 C 334.93 221.58 340.93 211.73 340.22 219.13 C 339.98 221.45 339.57 223.74 338.99 226.00 L 320.97 226.00 C 318.97 222.31 321.87 219.36 323.98 216.47 C 324.78 215.60 325.59 214.74 326.40 213.87 Z" />
<path fill="#0c0705" d=" M 275.20 217.11 C 282.37 215.43 289.64 218.50 296.90 215.88 C 304.49 215.43 310.82 220.50 318.40 220.25 C 318.34 222.17 318.11 224.08 317.95 226.00 L 258.41 226.00 C 261.30 221.30 268.92 223.28 272.39 218.24 C 273.32 217.86 274.25 217.48 275.20 217.11 Z" />
</svg>
